<?xml version="1.0" encoding="utf-8"?>
<!-- Generator: Adobe Illustrator 15.0.2, SVG Export Plug-In  -->
<!DOCTYPE svg PUBLIC "-//W3C//DTD SVG 1.1//EN" "http://www.w3.org/Graphics/SVG/1.1/DTD/svg11.dtd" [
	<!ENTITY ns_flows "http://ns.adobe.com/Flows/1.0/">
]>
<svg version="1.1"
	 xmlns="http://www.w3.org/2000/svg" xmlns:xlink="http://www.w3.org/1999/xlink" xmlns:a="http://ns.adobe.com/AdobeSVGViewerExtensions/3.0/"
	 x="0px" y="0px" width="170px" height="25px" viewBox="0 0 170 25" overflow="visible" enable-background="new 0 0 170 25"
	 xml:space="preserve">
<defs>
</defs>
<path fill="#FFFFFF" d="M0,6.7749023h1.984375v4.140625h0.0688477c0.5478516-1.4375,1.3969727-2.5429688,2.5488281-3.3193359
	C5.7539062,6.8212891,7.128418,6.4667969,8.7250977,6.5356445v2.1557617
	c-0.980957-0.0454102-1.8701172,0.0854492-2.668457,0.3930664c-0.7993164,0.3081055-1.4887695,0.7480469-2.0708008,1.3178711
	c-0.5810547,0.5698242-1.0322266,1.2548828-1.3515625,2.0532227s-0.4790039,1.6538086-0.4790039,2.565918v9.4101562H0V6.7749023z"/>
<path fill="#FFFFFF" d="M11.4277344,16.1855469c0,0.7978516,0.1132812,1.6074219,0.3417969,2.4287109
	s0.5698242,1.5634766,1.0263672,2.2236328C13.2529297,21.5,13.8515625,22.046875,14.5932617,22.4804688
	c0.7407227,0.4335938,1.625,0.6503906,2.6518555,0.6503906c1.5732422,0,2.8056641-0.4160156,3.6948242-1.2480469
	c0.8891602-0.8330078,1.5058594-1.9228516,1.8481445-3.2685547h2.1552734
	c-0.456543,2.0068359-1.2949219,3.5634766-2.5146484,4.6708984c-1.2202148,1.1054688-2.9487305,1.6591797-5.1835938,1.6591797
	c-1.4145508,0-2.6240234-0.2509766-3.6274414-0.7529297c-1.0043945-0.5009766-1.824707-1.1806641-2.4633789-2.0351562
	c-0.6386719-0.8554688-1.1123047-1.8476562-1.4204102-2.9785156c-0.3081055-1.1279297-0.4619141-2.3203125-0.4619141-3.5742188
	c0-1.1640625,0.1538086-2.3046875,0.4619141-3.421875c0.3081055-1.1176758,0.7817383-2.1162109,1.4204102-2.9941406
	c0.6386719-0.878418,1.4589844-1.5854492,2.4633789-2.1210938c1.003418-0.5366211,2.2128906-0.8046875,3.6274414-0.8046875
	c1.4135742,0,2.6230469,0.2856445,3.6264648,0.8554688C21.875,7.6875,22.690918,8.4345703,23.3183594,9.3579102
	c0.6274414,0.9248047,1.0776367,1.9853516,1.3510742,3.1831055c0.2739258,1.1972656,0.3881836,2.4121094,0.3427734,3.6445312
	H11.4277344z M22.855957,14.3710938c-0.0224609-0.8212891-0.1650391-1.6083984-0.4272461-2.3613281
	c-0.2626953-0.7524414-0.6328125-1.4189453-1.1118164-2.0009766c-0.4799805-0.5820312-1.0610352-1.0488281-1.7460938-1.4033203
	c-0.684082-0.3530273-1.4599609-0.5302734-2.3256836-0.5302734c-0.8901367,0-1.6772461,0.1772461-2.3613281,0.5302734
	c-0.684082,0.3544922-1.2661133,0.8212891-1.7451172,1.4033203s-0.8613281,1.2548828-1.1464844,2.0185547
	c-0.2856445,0.7641602-0.4731445,1.5449219-0.5644531,2.34375H22.855957z"/>
<path fill="#FFFFFF" d="M43.4555664,24.4316406h-1.9848633V21.078125h-0.0683594
	c-0.2285156,0.5703125-0.5644531,1.0947266-1.0092773,1.5742188c-0.4443359,0.4785156-0.953125,0.8896484-1.5229492,1.2304688
	c-0.5698242,0.34375-1.1796875,0.6054688-1.8305664,0.7871094c-0.6494141,0.1826172-1.2949219,0.2744141-1.9331055,0.2744141
	c-1.3461914,0-2.5146484-0.2509766-3.5068359-0.7529297c-0.9921875-0.5009766-1.8193359-1.1806641-2.480957-2.0351562
	c-0.6621094-0.8554688-1.1523438-1.8476562-1.4711914-2.9785156c-0.3203125-1.1279297-0.4790039-2.3203125-0.4790039-3.5742188
	s0.1586914-2.4472656,0.4790039-3.5761719c0.3188477-1.1293945,0.809082-2.121582,1.4711914-2.9765625
	c0.6616211-0.855957,1.4887695-1.5341797,2.480957-2.0366211c0.9921875-0.5009766,2.1606445-0.7524414,3.5068359-0.7524414
	c0.6616211,0,1.3056641,0.0854492,1.9331055,0.2568359c0.6274414,0.1708984,1.215332,0.4160156,1.7626953,0.7353516
	c0.546875,0.3203125,1.03125,0.7182617,1.4536133,1.1982422c0.4223633,0.4790039,0.7470703,1.0375977,0.9755859,1.6762695h0.0688477
	V0h2.1552734V24.4316406z M29.3237305,15.6035156c0,0.9121094,0.1083984,1.8183594,0.324707,2.7207031
	c0.2172852,0.9003906,0.5585938,1.7050781,1.0263672,2.4121094c0.4682617,0.7070312,1.0668945,1.2822266,1.7973633,1.7265625
	c0.7294922,0.4453125,1.6074219,0.6679688,2.6342773,0.6679688c1.140625,0,2.1040039-0.2226562,2.8911133-0.6679688
	c0.7871094-0.4443359,1.4257812-1.0195312,1.9165039-1.7265625c0.4902344-0.7070312,0.84375-1.5117188,1.0600586-2.4121094
	c0.2172852-0.9023438,0.3261719-1.8085938,0.3261719-2.7207031c0-0.9130859-0.1088867-1.8183594-0.3261719-2.7211914
	c-0.2163086-0.9003906-0.5698242-1.7041016-1.0600586-2.4121094C39.4233398,9.7636719,38.784668,9.1875,37.9975586,8.7426758
	s-1.7504883-0.6674805-2.8911133-0.6674805c-1.0268555,0-1.9047852,0.2226562-2.6342773,0.6674805
	c-0.7304688,0.4448242-1.3291016,1.0209961-1.7973633,1.7275391c-0.4677734,0.7080078-0.809082,1.5117188-1.0263672,2.4121094
	C29.4321289,13.7851562,29.3237305,14.6904297,29.3237305,15.6035156z"/>
<path fill="#FFFFFF" d="M63.0952148,24.4316406h-1.9848633V21.078125h-0.0683594
	c-0.2285156,0.5703125-0.5644531,1.0947266-1.0092773,1.5742188c-0.4443359,0.4785156-0.953125,0.8896484-1.5229492,1.2304688
	c-0.5698242,0.34375-1.1796875,0.6054688-1.8305664,0.7871094c-0.6494141,0.1826172-1.2949219,0.2744141-1.9331055,0.2744141
	c-1.3461914,0-2.5146484-0.2509766-3.5068359-0.7529297c-0.9921875-0.5009766-1.8193359-1.1806641-2.480957-2.0351562
	c-0.6621094-0.8554688-1.1518555-1.8476562-1.4711914-2.9785156c-0.3203125-1.1279297-0.4790039-2.3203125-0.4790039-3.5742188
	s0.1586914-2.4472656,0.4790039-3.5761719c0.3193359-1.1293945,0.809082-2.121582,1.4711914-2.9765625
	c0.6616211-0.855957,1.4887695-1.5341797,2.480957-2.0366211c0.9921875-0.5009766,2.1606445-0.7524414,3.5068359-0.7524414
	c0.6616211,0,1.3056641,0.0854492,1.9331055,0.2568359c0.6274414,0.1708984,1.215332,0.4160156,1.7626953,0.7353516
	c0.546875,0.3203125,1.03125,0.7182617,1.4536133,1.1982422c0.4223633,0.4790039,0.7470703,1.0375977,0.9755859,1.6762695h0.0688477
	V0h2.1552734V24.4316406z M48.9633789,15.6035156c0,0.9121094,0.1083984,1.8183594,0.324707,2.7207031
	c0.2172852,0.9003906,0.5585938,1.7050781,1.0263672,2.4121094c0.4682617,0.7070312,1.0668945,1.2822266,1.7973633,1.7265625
	c0.7294922,0.4453125,1.6074219,0.6679688,2.6342773,0.6679688c1.140625,0,2.1040039-0.2226562,2.8911133-0.6679688
	c0.7871094-0.4443359,1.4257812-1.0195312,1.9165039-1.7265625c0.4902344-0.7070312,0.84375-1.5117188,1.0600586-2.4121094
	c0.2172852-0.9023438,0.3261719-1.8085938,0.3261719-2.7207031c0-0.9130859-0.1088867-1.8183594-0.3261719-2.7211914
	c-0.2163086-0.9003906-0.5698242-1.7041016-1.0600586-2.4121094C59.0629883,9.7636719,58.4243164,9.1875,57.637207,8.7426758
	s-1.7504883-0.6674805-2.8911133-0.6674805c-1.0268555,0-1.9047852,0.2226562-2.6342773,0.6674805
	c-0.7304688,0.4448242-1.3291016,1.0209961-1.7973633,1.7275391c-0.4677734,0.7080078-0.809082,1.5117188-1.0263672,2.4121094
	C49.0717773,13.7851562,48.9633789,14.6904297,48.9633789,15.6035156z"/>
<path fill="#FFFFFF" d="M67.2358398,0.0341797h2.1552734v3.4213867h-2.1552734V0.0341797z M67.2358398,6.7749023h2.1552734
	v17.6567383h-2.1552734V6.7749023z"/>
<path fill="#FFFFFF" d="M76.953125,6.7749023h3.5927734v1.8134766H76.953125v11.9077148
	c0,0.7070312,0.0961914,1.2607422,0.2915039,1.6601562c0.1928711,0.3984375,0.6782227,0.6210938,1.453125,0.6660156
	c0.6166992,0,1.2319336-0.0332031,1.8481445-0.1015625v1.8466797c-0.3193359,0-0.6386719,0.0126953-0.9580078,0.0341797
	c-0.3198242,0.0234375-0.6391602,0.0351562-0.9575195,0.0351562c-1.4379883,0-2.4414062-0.2851562-3.0112305-0.8554688
	c-0.5708008-0.5703125-0.8447266-1.6083984-0.8212891-3.1142578V8.5883789h-3.0800781V6.7749023h3.0800781V1.4711914h2.1552734
	V6.7749023z"/>
<path fill="#FFFFFF" d="M105.6259766,12.3178711c-0.2958984-1.3222656-0.8505859-2.3603516-1.6591797-3.112793
	c-0.8105469-0.7529297-1.921875-1.1298828-3.3359375-1.1298828c-1.0273438,0-1.9277344,0.2172852-2.703125,0.6499023
	c-0.7763672,0.4345703-1.4199219,1.0043945-1.9335938,1.7114258c-0.5136719,0.7075195-0.9013672,1.5112305-1.1630859,2.4125977
	C94.5683594,13.75,94.4375,14.6679688,94.4375,15.6035156s0.1308594,1.8535156,0.3935547,2.7539062
	c0.2617188,0.9023438,0.6494141,1.7050781,1.1630859,2.4121094c0.5136719,0.7080078,1.1572266,1.2773438,1.9335938,1.7109375
	c0.7753906,0.4335938,1.6757812,0.6503906,2.703125,0.6503906c0.6611328,0,1.2871094-0.125,1.8818359-0.3759766
	c0.5927734-0.2509766,1.1181641-0.5986328,1.5732422-1.0439453c0.4570312-0.4453125,0.8320312-0.9746094,1.1289062-1.5917969
	c0.296875-0.6152344,0.4794922-1.2880859,0.5488281-2.0185547h2.1542969
	c-0.2949219,2.1435547-1.0898438,3.8212891-2.3769531,5.0302734c-1.2900391,1.2089844-2.9257812,1.8134766-4.9101562,1.8134766
	c-1.3466797,0-2.5380859-0.2509766-3.5761719-0.7529297c-1.0390625-0.5009766-1.9111328-1.1748047-2.6171875-2.0185547
	c-0.7070312-0.84375-1.2441406-1.8310547-1.609375-2.9599609c-0.3642578-1.1289062-0.546875-2.3320312-0.546875-3.609375
	c0-1.2539062,0.1826172-2.4521484,0.546875-3.59375c0.3652344-1.1396484,0.9023438-2.1318359,1.609375-2.9765625
	c0.7060547-0.84375,1.578125-1.5166016,2.6171875-2.019043c1.0380859-0.5009766,2.2294922-0.7524414,3.5761719-0.7524414
	c1.8925781,0,3.4951172,0.5019531,4.8076172,1.5053711c1.3115234,1.0043945,2.0917969,2.5209961,2.34375,4.5507812H105.6259766z"/>
<path fill="#FFFFFF" d="M110.9648438,0h2.1552734v24.4316406h-2.1552734V0z"/>
<path fill="#FFFFFF" d="M136.25,6.7749023h2.15625v3.0454102h0.0693359
	c0.2041016-0.5244141,0.4951172-1.0087891,0.8720703-1.4545898c0.375-0.4443359,0.8154297-0.8203125,1.3164062-1.128418
	c0.5019531-0.3081055,1.0488281-0.5478516,1.6425781-0.71875c0.5927734-0.1713867,1.1972656-0.2568359,1.8144531-0.2568359
	c1.2304688,0,2.2626953,0.159668,3.0957031,0.4790039c0.8320312,0.3198242,1.5,0.7700195,2.0019531,1.3510742
	c0.5009766,0.5820312,0.8554688,1.2958984,1.0615234,2.1386719c0.2041016,0.8447266,0.3056641,1.7915039,0.3056641,2.8398438
	v11.3613281h-2.1542969V13.4140625c0-0.753418-0.0683594-1.4550781-0.2050781-2.1049805
	c-0.1367188-0.6503906-0.3769531-1.2148438-0.7177734-1.6938477c-0.3427734-0.4790039-0.8056641-0.855957-1.3867188-1.1298828
	c-0.5810547-0.2734375-1.3056641-0.4101562-2.171875-0.4101562c-0.8671875,0-1.6376953,0.1542969-2.3095703,0.4624023
	c-0.6738281,0.3071289-1.25,0.7294922-1.7285156,1.2661133c-0.4785156,0.5356445-0.84375,1.1748047-1.0957031,1.9155273
	c-0.25,0.7416992-0.3867188,1.5454102-0.4101562,2.4125977v10.2998047H136.25V6.7749023z"/>
<path fill="#FFFFFF" d="M155.9257812,16.1855469c0,0.7978516,0.1132812,1.6074219,0.3417969,2.4287109
	s0.5693359,1.5634766,1.0263672,2.2236328C157.75,21.5,158.3476562,22.046875,159.0908203,22.4804688
	c0.7412109,0.4335938,1.6240234,0.6503906,2.6513672,0.6503906c1.5742188,0,2.8066406-0.4160156,3.6953125-1.2480469
	c0.8896484-0.8330078,1.5058594-1.9228516,1.8476562-3.2685547h2.15625
	c-0.4560547,2.0068359-1.2949219,3.5634766-2.5146484,4.6708984c-1.2216797,1.1054688-2.9501953,1.6591797-5.1845703,1.6591797
	c-1.4150391,0-2.6230469-0.2509766-3.6259766-0.7529297c-1.0048828-0.5009766-1.8271484-1.1806641-2.4658203-2.0351562
	c-0.6386719-0.8554688-1.1113281-1.8476562-1.4179688-2.9785156c-0.3085938-1.1279297-0.4619141-2.3203125-0.4619141-3.5742188
	c0-1.1640625,0.1533203-2.3046875,0.4619141-3.421875c0.3066406-1.1176758,0.7792969-2.1162109,1.4179688-2.9941406
	c0.6386719-0.878418,1.4609375-1.5854492,2.4658203-2.1210938c1.0029297-0.5366211,2.2109375-0.8046875,3.6259766-0.8046875
	c1.4140625,0,2.6230469,0.2856445,3.6269531,0.8554688c1.0039062,0.5703125,1.8193359,1.3173828,2.4472656,2.2407227
	c0.6269531,0.9248047,1.078125,1.9853516,1.3515625,3.1831055c0.2734375,1.1972656,0.3867188,2.4121094,0.3408203,3.6445312
	H155.9257812z M167.3535156,14.3710938c-0.0224609-0.8212891-0.1650391-1.6083984-0.4267578-2.3613281
	c-0.2636719-0.7524414-0.6337891-1.4189453-1.1123047-2.0009766s-1.0615234-1.0488281-1.7441406-1.4033203
	c-0.6855469-0.3530273-1.4619141-0.5302734-2.328125-0.5302734c-0.8896484,0-1.6767578,0.1772461-2.359375,0.5302734
	c-0.6855469,0.3544922-1.2666016,0.8212891-1.7460938,1.4033203c-0.4804688,0.5820312-0.8613281,1.2548828-1.1464844,2.0185547
	c-0.2861328,0.7641602-0.4736328,1.5449219-0.5644531,2.34375H167.3535156z"/>
<radialGradient id="SVGID_1_" cx="124.8398438" cy="5.1240234" r="2.8085093" gradientUnits="userSpaceOnUse">
	<stop  offset="0" style="stop-color:#FAC61B"/>
	<stop  offset="0.545455" style="stop-color:#FAC517"/>
	<stop  offset="1" style="stop-color:#8F2D03"/>
</radialGradient>
<path fill="url(#SVGID_1_)" d="M127.6240234,6.7719727l-5.453125-0.1401367c0,0,0.5322266-0.0976562,0.5927734-0.5732422
	c0.0478516-0.3642578,0.0878906-1.4667969,0.0878906-1.4667969h3.734375c0,0,0.1308594,1.059082,0.1855469,1.4243164
	C126.8447266,6.5058594,127.6240234,6.7719727,127.6240234,6.7719727z"/>
<radialGradient id="SVGID_2_" cx="129.2412109" cy="131.609375" r="17.4189968" gradientTransform="matrix(0.9999599 0.008961 -0.008961 0.9999599 -4.3334808 -107.90271)" gradientUnits="userSpaceOnUse">
	<stop  offset="0" style="stop-color:#FEF9CC"/>
	<stop  offset="0.50303" style="stop-color:#FAC61B"/>
	<stop  offset="1" style="stop-color:#8F2D03"/>
</radialGradient>
<circle fill="url(#SVGID_2_)" cx="124.6274414" cy="15.6386719" r="9.3621931"/>
<radialGradient id="SVGID_3_" cx="129.4179688" cy="128.4833984" r="19.6741314" gradientTransform="matrix(0.9999599 0.008961 -0.008844 0.986923 -4.380722 -102.4656982)" gradientUnits="userSpaceOnUse">
	<stop  offset="0.0545455" style="stop-color:#FDF1B5"/>
	<stop  offset="0.50303" style="stop-color:#FAC61B"/>
	<stop  offset="1" style="stop-color:#8F2D03"/>
</radialGradient>
<path fill="url(#SVGID_3_)" d="M129.9433594,16.2070312c-1.7490234-0.1835938-4.4023438,0.8496094-5.8154297,1.3066406
	c-2.4746094,0.8007812-4.9833984,1.1464844-6.7919922,0.328125c-2.7001953-1.2246094-1.7226562-5.2587891,0.5673828-8.3452148
	c-1.5888672,1.6357422-2.4951172,3.9584961-2.515625,6.190918c-0.0439453,4.9863281,4.015625,9.0664062,9.0683594,9.1113281
	c2.1630859,0.0175781,4.1582031-0.7050781,5.7363281-1.9316406C133.8427734,20.125,132.9892578,16.5253906,129.9433594,16.2070312z"
	/>
<radialGradient id="SVGID_4_" cx="129.6123047" cy="131.5351562" r="8.8834629" gradientTransform="matrix(0.9999599 0.008961 -0.008961 0.9999599 -4.3334808 -107.90271)" gradientUnits="userSpaceOnUse">
	<stop  offset="0" style="stop-color:#FEFCE2"/>
	<stop  offset="0.212121" style="stop-color:#FDF0AF"/>
	<stop  offset="0.688312" style="stop-color:#FBD750"/>
	<stop  offset="1" style="stop-color:#FAC923"/>
</radialGradient>
<path fill="url(#SVGID_4_)" d="M120.5742188,22.1464844c-0.0097656,1.0722656,1.7714844,1.9589844,3.9775391,1.9785156
	s4.0029297-0.8339844,4.0117188-1.90625c0.0097656-1.0742188-1.7714844-1.9609375-3.9775391-1.9785156
	C122.3798828,20.21875,120.5839844,21.0722656,120.5742188,22.1464844z"/>
<radialGradient id="SVGID_5_" cx="129.6123047" cy="114.8994141" r="8.663331" gradientTransform="matrix(0.9999599 0.008961 -0.008961 0.9999599 -4.3334808 -107.90271)" gradientUnits="userSpaceOnUse">
	<stop  offset="0" style="stop-color:#FEF6C0"/>
	<stop  offset="0.50303" style="stop-color:#FBCE31"/>
	<stop  offset="0.7694809" style="stop-color:#FAC61B"/>
</radialGradient>
<path fill="url(#SVGID_5_)" d="M118.6621094,10.7626953c-0.0185547,2.1176758,2.6572266,3.8583984,5.9746094,3.8896484
	c3.3164062,0.0292969,6.0234375-1.6640625,6.0429688-3.7817383c0.0185547-2.1176758-2.65625-3.8588867-5.9746094-3.8891602
	C121.3876953,6.9521484,118.6816406,8.6450195,118.6621094,10.7626953z"/>
<radialGradient id="SVGID_6_" cx="124.3535156" cy="2.9472656" r="12.0781717" gradientUnits="userSpaceOnUse">
	<stop  offset="0.453694" style="stop-color:#FEF7C6"/>
	<stop  offset="0.5473568" style="stop-color:#FDEB9C"/>
	<stop  offset="0.650207" style="stop-color:#FBDF73"/>
	<stop  offset="0.7033449" style="stop-color:#FBDB63"/>
	<stop  offset="0.7296916" style="stop-color:#F9D65A"/>
	<stop  offset="0.9121547" style="stop-color:#EEB621"/>
	<stop  offset="1" style="stop-color:#EAAA0B"/>
</radialGradient>
<path fill="url(#SVGID_6_)" d="M118.6621094,10.7626953c-0.0185547,2.1176758,2.6572266,3.8583984,5.9746094,3.8896484
	c3.3164062,0.0292969,6.0234375-1.6640625,6.0429688-3.7817383c0.0185547-2.1176758-2.65625-3.8588867-5.9746094-3.8891602
	C121.3876953,6.9521484,118.6816406,8.6450195,118.6621094,10.7626953z"/>
<radialGradient id="SVGID_7_" cx="129.2431641" cy="131.609375" r="17.4197636" gradientTransform="matrix(0.9999599 0.008961 -0.008961 0.9999599 -4.3334808 -107.90271)" gradientUnits="userSpaceOnUse">
	<stop  offset="0" style="stop-color:#FEFCDE"/>
	<stop  offset="0.50303" style="stop-color:#FBD039"/>
	<stop  offset="1" style="stop-color:#8F2D03"/>
</radialGradient>
<path fill="url(#SVGID_7_)" d="M116.3203125,17.0605469c0.2519531,0.3222656,0.5869141,0.5878906,1.015625,0.78125
	c0.5742188,0.2597656,1.21875,0.4023438,1.9101562,0.4492188c-0.1904297-0.6855469-0.3115234-1.3847656-0.3652344-2.0859375
	c-0.0898438-1.1777344,0.1513672-2.3828125,0.5908203-3.4941406c-0.5205078-0.5742188-0.8144531-1.2402344-0.8095703-1.9482422
	c0.0029297-0.2333984,0.0371094-0.4609375,0.1015625-0.6821289c-1.1650391,1.0888672-2.1103516,2.5717773-2.4570312,4.3588867
	C116.1611328,15.1875,116.1542969,16.0996094,116.3203125,17.0605469z"/>
<radialGradient id="SVGID_8_" cx="129.4189453" cy="128.4833984" r="19.68396" gradientTransform="matrix(0.9999599 0.008961 -0.008844 0.986923 -4.3802338 -102.4656982)" gradientUnits="userSpaceOnUse">
	<stop  offset="0.0545455" style="stop-color:#FEFAD2"/>
	<stop  offset="0.50303" style="stop-color:#FBD039"/>
	<stop  offset="1" style="stop-color:#8F2D03"/>
</radialGradient>
<path fill="url(#SVGID_8_)" d="M117.3359375,17.8417969c-0.4287109-0.1933594-0.7636719-0.4589844-1.015625-0.78125
	c0.3203125,1.8652344,1.2978516,3.9042969,3.2070312,5.25c2.1904297,1.5429688,3.5166016,1.8652344,5.0185547,2.1015625
	c-0.2314453-0.0996094-0.4550781-0.2070312-0.6708984-0.3222656c-1.8818359-0.171875-3.3095703-0.9824219-3.3007812-1.9433594
	c0.0019531-0.2285156,0.0859375-0.4472656,0.2353516-0.6484375c-0.7333984-0.9746094-1.2460938-2.0703125-1.5634766-3.2070312
	C118.5546875,18.2441406,117.9101562,18.1015625,117.3359375,17.8417969z"/>
<radialGradient id="SVGID_9_" cx="129.2402344" cy="131.609375" r="17.4151669" gradientTransform="matrix(0.9999599 0.008961 -0.008961 0.9999599 -4.3334808 -107.90271)" gradientUnits="userSpaceOnUse">
	<stop  offset="0" style="stop-color:#FEFCDE"/>
	<stop  offset="0.50303" style="stop-color:#FBD039"/>
	<stop  offset="1" style="stop-color:#8F2D03"/>
</radialGradient>
<path fill="url(#SVGID_9_)" d="M120.5742188,22.1464844c-0.0087891,0.9609375,1.4189453,1.7714844,3.3007812,1.9433594
	c-1.2832031-0.6738281-2.2958984-1.5683594-3.0654297-2.5917969
	C120.6601562,21.6992188,120.5761719,21.9179688,120.5742188,22.1464844z"/>
<radialGradient id="SVGID_10_" cx="129.6113281" cy="131.5341797" r="8.8885365" gradientTransform="matrix(0.9999599 0.008961 -0.008961 0.9999599 -4.3334808 -107.90271)" gradientUnits="userSpaceOnUse">
	<stop  offset="0" style="stop-color:#FEFCE2"/>
	<stop  offset="0.212121" style="stop-color:#FEF9CF"/>
	<stop  offset="0.575758" style="stop-color:#FDEEAB"/>
	<stop  offset="1" style="stop-color:#FBCB27"/>
</radialGradient>
<path fill="url(#SVGID_10_)" d="M120.5742188,22.1464844c-0.0087891,0.9609375,1.4189453,1.7714844,3.3007812,1.9433594
	c-1.2832031-0.6738281-2.2958984-1.5683594-3.0654297-2.5917969
	C120.6601562,21.6992188,120.5761719,21.9179688,120.5742188,22.1464844z"/>
<linearGradient id="SVGID_11_" gradientUnits="userSpaceOnUse" x1="113.6044922" y1="-9.6381836" x2="116.8019714" y2="3.730536" gradientTransform="matrix(0.981756 0.190144 -0.190144 0.981756 7.3261108 -11.0736389)">
	<stop  offset="0.453694" style="stop-color:#FEFBDD"/>
	<stop  offset="0.717919" style="stop-color:#FCE587"/>
	<stop  offset="1" style="stop-color:#FAC61B"/>
</linearGradient>
<path fill="url(#SVGID_11_)" d="M118.6621094,10.7626953c-0.0048828,0.7080078,0.2890625,1.3740234,0.8095703,1.9482422
	c0.8916016-2.2617188,2.5947266-4.1479492,3.9746094-4.6879883c-1.4013672-0.0595703-3.2158203,0.6870117-4.6826172,2.0576172
	C118.6992188,10.3017578,118.6650391,10.5292969,118.6621094,10.7626953z"/>
<radialGradient id="SVGID_12_" cx="129.2451172" cy="131.609375" r="17.4135303" gradientTransform="matrix(0.9999599 0.008961 -0.008961 0.9999599 -4.3334808 -107.90271)" gradientUnits="userSpaceOnUse">
	<stop  offset="0" style="stop-color:#FEFCE2"/>
	<stop  offset="0.50303" style="stop-color:#FCE482"/>
	<stop  offset="1" style="stop-color:#FAC517"/>
</radialGradient>
<path fill="url(#SVGID_12_)" d="M130.9277344,9.6621094c1.7460938,2.4707031,1.6318359,5.0742188,0.6337891,7.1503906
	c0.5830078,0.4394531,0.9414062,1.0820312,1.0185547,1.8242188
	C133.9902344,15.5644531,133.3662109,11.8007812,130.9277344,9.6621094z"/>
<radialGradient id="SVGID_13_" cx="129.4140625" cy="128.4833984" r="19.6850166" gradientTransform="matrix(0.9999599 0.008961 -0.008844 0.986923 -4.3802338 -102.4656982)" gradientUnits="userSpaceOnUse">
	<stop  offset="0.0545455" style="stop-color:#FEFCE2"/>
	<stop  offset="0.50303" style="stop-color:#FCE482"/>
	<stop  offset="1" style="stop-color:#FAC517"/>
</radialGradient>
<path fill="url(#SVGID_13_)" d="M131.5615234,16.8125c-0.0742188,0.1542969-0.1523438,0.3066406-0.2373047,0.4550781
	c0.0429688,1.0957031-0.1972656,2.65625-1.203125,4.4121094c1.1132812-0.8359375,1.9287109-1.890625,2.4589844-3.0429688
	C132.5029297,17.8945312,132.1445312,17.2519531,131.5615234,16.8125z"/>
<ellipse transform="matrix(0.9333783 0.3588941 -0.3588941 0.9333783 16.8013077 -42.6597595)" fill="#FFFFFF" cx="123.3056641" cy="23.9248047" rx="0.7700522" ry="0.4967517"/>
<ellipse transform="matrix(0.8722461 0.4890673 -0.4890673 0.8722461 26.5441284 -56.0067978)" fill="#FFFFFF" cx="120.4746094" cy="22.8046875" rx="1.2819364" ry="0.6020292"/>
<ellipse transform="matrix(-0.6735305 0.7391595 -0.7391595 -0.6735305 207.8733063 -71.06427)" fill="#FFFFFF" cx="119.6303711" cy="10.3742676" rx="1.2462027" ry="0.8535851"/>
<ellipse transform="matrix(-0.6429557 0.7659034 -0.7659034 -0.6429557 203.4131165 -69.8923416)" fill="#FFFFFF" cx="117.9975586" cy="12.4667969" rx="0.7267766" ry="0.563915"/>
<radialGradient id="SVGID_14_" cx="129.2421875" cy="131.6074219" r="17.4164085" gradientTransform="matrix(0.9999599 0.008961 -0.008961 0.9999599 -4.3334808 -107.90271)" gradientUnits="userSpaceOnUse">
	<stop  offset="0" style="stop-color:#F7D100"/>
	<stop  offset="0.50303" style="stop-color:#DE0000"/>
	<stop  offset="1" style="stop-color:#000000"/>
</radialGradient>
<path fill="url(#SVGID_14_)" d="M133.4248047,12.4306641c-0.1123047-0.3081055-0.2412109-0.6088867-0.3837891-0.9003906
	c-0.21875-0.0166016-0.4375-0.0327148-0.6572266-0.0473633c0.1611328,0.293457,0.3027344,0.5981445,0.4238281,0.9125977
	C133.0136719,12.4067383,133.21875,12.418457,133.4248047,12.4306641z"/>
<radialGradient id="SVGID_15_" cx="129.2285156" cy="131.6113281" r="17.4384937" gradientTransform="matrix(0.9999599 0.008961 -0.008961 0.9999599 -4.3334808 -107.90271)" gradientUnits="userSpaceOnUse">
	<stop  offset="0" style="stop-color:#F7D100"/>
	<stop  offset="0.50303" style="stop-color:#DE0000"/>
	<stop  offset="1" style="stop-color:#000000"/>
</radialGradient>
<path fill="url(#SVGID_15_)" d="M132.5175781,19.6523438c0.1611328-0.0117188,0.3222656-0.0214844,0.4824219-0.0332031
	c0.1396484-0.2929688,0.2666016-0.59375,0.3789062-0.9023438c-0.2626953,0.015625-0.5253906,0.0292969-0.7890625,0.0429688
	C132.6074219,19.0449219,132.5839844,19.3457031,132.5175781,19.6523438z"/>
<radialGradient id="SVGID_16_" cx="129.2441406" cy="131.6123047" r="17.4303665" gradientTransform="matrix(0.9999599 0.008961 -0.008961 0.9999599 -4.3334808 -107.90271)" gradientUnits="userSpaceOnUse">
	<stop  offset="0" style="stop-color:#F7D100"/>
	<stop  offset="0.50303" style="stop-color:#DE0000"/>
	<stop  offset="1" style="stop-color:#000000"/>
</radialGradient>
<path fill="url(#SVGID_16_)" d="M116.7226562,20.4648438c-0.0039062,0-0.0068359-0.0019531-0.0117188-0.0019531
	c0.6982422,1.15625,1.6201172,2.1464844,2.7021484,2.9082031c0.0732422,0.0078125,0.1464844,0.0136719,0.2197266,0.0214844
	C118.4492188,22.6503906,117.453125,21.6464844,116.7226562,20.4648438z"/>
<radialGradient id="SVGID_17_" cx="129.2597656" cy="131.6064453" r="17.4447536" gradientTransform="matrix(0.9999599 0.008961 -0.008961 0.9999599 -4.3334808 -107.90271)" gradientUnits="userSpaceOnUse">
	<stop  offset="0" style="stop-color:#F7D100"/>
	<stop  offset="0.50303" style="stop-color:#DE0000"/>
	<stop  offset="1" style="stop-color:#000000"/>
</radialGradient>
<path fill="url(#SVGID_17_)" d="M116.265625,19.6289062c-0.140625-0.2929688-0.265625-0.5957031-0.375-0.9042969
	c-0.0039062,0-0.0078125,0-0.0117188,0c0.1132812,0.3085938,0.2402344,0.6113281,0.3818359,0.9042969
	C116.2617188,19.6289062,116.2636719,19.6289062,116.265625,19.6289062z"/>
<radialGradient id="SVGID_18_" cx="129.2421875" cy="131.609375" r="17.4165783" gradientTransform="matrix(0.9999599 0.008961 -0.008961 0.9999599 -4.3334808 -107.90271)" gradientUnits="userSpaceOnUse">
	<stop  offset="0" style="stop-color:#F7D100"/>
	<stop  offset="0.50303" style="stop-color:#DE0000"/>
	<stop  offset="1" style="stop-color:#000000"/>
</radialGradient>
<path fill="url(#SVGID_18_)" d="M132.2392578,20.4765625c-0.3691406,0.8046875-1.0351562,1.6308594-2.046875,2.390625
	c-0.2421875,0.1894531-0.4960938,0.3652344-0.7568359,0.5292969c0.1425781-0.0136719,0.2851562-0.0253906,0.4277344-0.0390625
	c1.0751953-0.7617188,1.9921875-1.7519531,2.6865234-2.9042969C132.4462891,20.4609375,132.3427734,20.46875,132.2392578,20.4765625
	z"/>
<radialGradient id="SVGID_19_" cx="129.2421875" cy="131.6142578" r="17.4227581" gradientTransform="matrix(0.9999599 0.008961 -0.008961 0.9999599 -4.3334808 -107.90271)" gradientUnits="userSpaceOnUse">
	<stop  offset="0" style="stop-color:#F7D100"/>
	<stop  offset="0.50303" style="stop-color:#DE0000"/>
	<stop  offset="1" style="stop-color:#000000"/>
</radialGradient>
<path fill="url(#SVGID_19_)" d="M132.1367188,12.3598633c-0.0644531-0.3027344-0.1523438-0.6064453-0.2626953-0.9101562
	c-0.4179688-0.0273438-0.8349609-0.0522461-1.2519531-0.0742188c-0.0673828,0.3139648-0.1943359,0.6152344-0.3740234,0.8989258
	C130.8779297,12.2983398,131.5078125,12.3276367,132.1367188,12.3598633z"/>
<radialGradient id="SVGID_20_" cx="129.2392578" cy="131.609375" r="17.4206715" gradientTransform="matrix(0.9999599 0.008961 -0.008961 0.9999599 -4.3334808 -107.90271)" gradientUnits="userSpaceOnUse">
	<stop  offset="0" style="stop-color:#F7D100"/>
	<stop  offset="0.50303" style="stop-color:#DE0000"/>
	<stop  offset="1" style="stop-color:#000000"/>
</radialGradient>
<path fill="url(#SVGID_20_)" d="M130.6611328,10.5493164c0.2802734,0.0185547,0.5625,0.0385742,0.84375,0.0595703
	c-0.1640625-0.3168945-0.3564453-0.6323242-0.5771484-0.9467773c0.3349609,0.2949219,0.6357422,0.6210938,0.9023438,0.9711914
	c0.25,0.019043,0.5,0.0410156,0.75,0.0625c-0.7304688-1.1723633-1.7138672-2.171875-2.8730469-2.9228516
	c-0.5742188-0.0551758-1.1484375-0.1010742-1.7226562-0.1381836
	C129.4863281,8.2783203,130.5146484,9.3383789,130.6611328,10.5493164z"/>
<radialGradient id="SVGID_21_" cx="129.2421875" cy="131.6230469" r="17.4343204" gradientTransform="matrix(0.9999599 0.008961 -0.008961 0.9999599 -4.3334808 -107.90271)" gradientUnits="userSpaceOnUse">
	<stop  offset="0" style="stop-color:#F7D100"/>
	<stop  offset="0.50303" style="stop-color:#DE0000"/>
	<stop  offset="1" style="stop-color:#000000"/>
</radialGradient>
<path fill="url(#SVGID_21_)" d="M117.0322266,12.3569336c0.1689453-0.3256836,0.3564453-0.6362305,0.5625-0.9296875
	c-0.3056641,0.019043-0.6113281,0.0390625-0.9169922,0.0595703c-0.1503906,0.3032227-0.2861328,0.6079102-0.4052734,0.9111328
	C116.5253906,12.3833008,116.7802734,12.3701172,117.0322266,12.3569336z"/>
<radialGradient id="SVGID_22_" cx="129.2412109" cy="131.6142578" r="17.4240723" gradientTransform="matrix(0.9999599 0.008961 -0.008961 0.9999599 -4.3334808 -107.90271)" gradientUnits="userSpaceOnUse">
	<stop  offset="0" style="stop-color:#F7D100"/>
	<stop  offset="0.50303" style="stop-color:#DE0000"/>
	<stop  offset="1" style="stop-color:#000000"/>
</radialGradient>
<path fill="url(#SVGID_22_)" d="M129.9433594,16.2070312c0.6455078,0.0664062,1.1914062,0.28125,1.6181641,0.6054688l0,0
	c0.3623047-0.7539062,0.6074219-1.5761719,0.6904297-2.4375c-1.6855469-0.03125-3.3710938-0.0546875-5.0566406-0.0644531
	c-0.7773438,0.2265625-1.6455078,0.3496094-2.5585938,0.3417969c-0.8574219-0.0078125-1.6708984-0.1308594-2.4072266-0.34375
	c-1.078125,0.0078125-2.15625,0.0175781-3.234375,0.0332031c-0.1162109,0.6152344-0.1621094,1.2441406-0.1142578,1.8632812
	c0.0224609,0.2929688,0.0576172,0.5839844,0.1025391,0.8730469c2.1025391,0.0351562,4.203125,0.0507812,6.3037109,0.0449219
	C126.7265625,16.6425781,128.6005859,16.0664062,129.9433594,16.2070312z"/>
<radialGradient id="SVGID_23_" cx="129.2421875" cy="131.6083984" r="17.418314" gradientTransform="matrix(0.9999599 0.008961 -0.008961 0.9999599 -4.3334808 -107.90271)" gradientUnits="userSpaceOnUse">
	<stop  offset="0" style="stop-color:#F7D100"/>
	<stop  offset="0.50303" style="stop-color:#DE0000"/>
	<stop  offset="1" style="stop-color:#000000"/>
</radialGradient>
<path fill="url(#SVGID_23_)" d="M116.6835938,10.6835938c0.0917969-0.0078125,0.1855469-0.015625,0.2763672-0.0229492
	c0.28125-0.4160156,0.5957031-0.8066406,0.9433594-1.1640625c-0.2753906,0.3710938-0.5322266,0.7563477-0.765625,1.1489258
	c0.3847656-0.0307617,0.7685547-0.0595703,1.1533203-0.0854492c0.1533203-0.1669922,0.3105469-0.3276367,0.4726562-0.4794922l0,0
	c0.2988281-1.0234375,1.234375-1.8989258,2.5351562-2.4555664c-0.5751953,0.034668-1.1503906,0.0795898-1.7255859,0.1328125
	C118.4082031,8.5068359,117.4189453,9.5073242,116.6835938,10.6835938z"/>
<radialGradient id="SVGID_24_" cx="129.2558594" cy="131.6113281" r="17.4363613" gradientTransform="matrix(0.9999599 0.008961 -0.008961 0.9999599 -4.3334808 -107.90271)" gradientUnits="userSpaceOnUse">
	<stop  offset="0" style="stop-color:#F7D100"/>
	<stop  offset="0.50303" style="stop-color:#DE0000"/>
	<stop  offset="1" style="stop-color:#000000"/>
</radialGradient>
<path fill="url(#SVGID_24_)" d="M116.3066406,14.4394531c0.0029297-0.0175781,0.0078125-0.0351562,0.0117188-0.0527344
	c-0.1914062,0.0019531-0.3828125,0.0058594-0.5742188,0.0117188c-0.1220703,1.0234375,0.03125,1.9433594,0.5458984,2.6230469
	c0.0078125,0.0019531,0.015625,0.0019531,0.0244141,0.0019531
	C116.1552734,16.0761719,116.1630859,15.1777344,116.3066406,14.4394531z"/>
<radialGradient id="SVGID_25_" cx="129.1992188" cy="131.6113281" r="17.3750572" gradientTransform="matrix(0.9999599 0.008961 -0.008961 0.9999599 -4.3334808 -107.90271)" gradientUnits="userSpaceOnUse">
	<stop  offset="0" style="stop-color:#F7D100"/>
	<stop  offset="0.50303" style="stop-color:#DE0000"/>
	<stop  offset="1" style="stop-color:#000000"/>
</radialGradient>
<path fill="url(#SVGID_25_)" d="M115.4960938,14.4023438c-0.0498047,0.0019531-0.0996094,0.0019531-0.1503906,0.0039062
	c-0.0439453,0.3378906-0.0712891,0.6855469-0.0771484,1.0371094c0.0107422,0.5292969,0.0625,1.0488281,0.1503906,1.5566406
	c0.0175781,0,0.0351562,0.0019531,0.0537109,0.0019531c-0.0585938-0.4296875-0.0888672-0.8691406-0.0849609-1.3144531
	C115.3925781,15.2617188,115.4287109,14.8300781,115.4960938,14.4023438z"/>
<radialGradient id="SVGID_26_" cx="129.2441406" cy="131.6064453" r="17.4144859" gradientTransform="matrix(0.9999599 0.008961 -0.008961 0.9999599 -4.3334808 -107.90271)" gradientUnits="userSpaceOnUse">
	<stop  offset="0" style="stop-color:#F7D100"/>
	<stop  offset="0.50303" style="stop-color:#DE0000"/>
	<stop  offset="1" style="stop-color:#000000"/>
</radialGradient>
<path fill="url(#SVGID_26_)" d="M133.9091797,14.4082031c-0.2099609-0.0039062-0.4189453-0.0078125-0.6289062-0.0136719
	c0.0888672,0.8652344,0.0371094,1.7539062-0.15625,2.6191406c0.2363281-0.0039062,0.4746094-0.0097656,0.7128906-0.0175781
	c0.0888672-0.5078125,0.140625-1.0292969,0.1494141-1.5625C133.9804688,15.0859375,133.953125,14.7441406,133.9091797,14.4082031z"
	/>
<radialGradient id="SVGID_27_" cx="129.2597656" cy="131.6162109" r="17.4370422" gradientTransform="matrix(0.9999599 0.008961 -0.008961 0.9999599 -4.3334808 -107.90271)" gradientUnits="userSpaceOnUse">
	<stop  offset="0" style="stop-color:#F7D100"/>
	<stop  offset="0.50303" style="stop-color:#DE0000"/>
	<stop  offset="1" style="stop-color:#000000"/>
</radialGradient>
<path fill="url(#SVGID_27_)" d="M116.0410156,12.4111328c0.1220703-0.3100586,0.2617188-0.6137695,0.4179688-0.9086914
	c-0.0810547,0.0058594-0.1601562,0.0112305-0.2412109,0.0175781c-0.1435547,0.2924805-0.2714844,0.59375-0.3847656,0.902832
	C115.9023438,12.418457,115.9716797,12.4150391,116.0410156,12.4111328z"/>
<radialGradient id="SVGID_28_" cx="129.4199219" cy="128.4697266" r="19.6606655" gradientTransform="matrix(0.9999599 0.008961 -0.008844 0.986923 -4.3802338 -102.4656982)" gradientUnits="userSpaceOnUse">
	<stop  offset="0.0545455" style="stop-color:#F2A000"/>
	<stop  offset="0.50303" style="stop-color:#DE0000"/>
	<stop  offset="1" style="stop-color:#000000"/>
</radialGradient>
<path fill="url(#SVGID_28_)" d="M115.7441406,14.3984375c-0.0820312,0.0019531-0.1660156,0.0019531-0.2480469,0.0039062
	c-0.0673828,0.4277344-0.1035156,0.859375-0.1083984,1.2851562c-0.0039062,0.4453125,0.0263672,0.8847656,0.0849609,1.3144531
	c0.2724609,0.0078125,0.5458984,0.0136719,0.8173828,0.0195312
	C115.7753906,16.3417969,115.6220703,15.421875,115.7441406,14.3984375z"/>
<radialGradient id="SVGID_29_" cx="129.2460938" cy="131.6064453" r="17.4183311" gradientTransform="matrix(0.9999599 0.008961 -0.008961 0.9999599 -4.3334808 -107.90271)" gradientUnits="userSpaceOnUse">
	<stop  offset="0" style="stop-color:#F7D100"/>
	<stop  offset="0.50303" style="stop-color:#DE0000"/>
	<stop  offset="1" style="stop-color:#000000"/>
</radialGradient>
<path fill="url(#SVGID_29_)" d="M116.9599609,10.6606445c0.0605469-0.0053711,0.1191406-0.0102539,0.1777344-0.0151367
	c0.2333984-0.3925781,0.4902344-0.777832,0.765625-1.1489258C117.5556641,9.8540039,117.2412109,10.2446289,116.9599609,10.6606445z
	"/>
<radialGradient id="SVGID_30_" cx="129.4316406" cy="128.4902344" r="19.6877251" gradientTransform="matrix(0.9999599 0.008961 -0.008844 0.986923 -4.3802338 -102.4656982)" gradientUnits="userSpaceOnUse">
	<stop  offset="0.0545455" style="stop-color:#F2A000"/>
	<stop  offset="0.50303" style="stop-color:#DE0000"/>
	<stop  offset="1" style="stop-color:#000000"/>
</radialGradient>
<path fill="url(#SVGID_30_)" d="M116.9599609,10.6606445c0.0605469-0.0053711,0.1191406-0.0102539,0.1777344-0.0151367
	c0.2333984-0.3925781,0.4902344-0.777832,0.765625-1.1489258C117.5556641,9.8540039,117.2412109,10.2446289,116.9599609,10.6606445z
	"/>
<radialGradient id="SVGID_31_" cx="129.5029297" cy="128.3417969" r="19.5254097" gradientTransform="matrix(0.9999599 0.008961 -0.008844 0.986923 -4.3802338 -102.4656982)" gradientUnits="userSpaceOnUse">
	<stop  offset="0.0545455" style="stop-color:#F2A000"/>
	<stop  offset="0.50303" style="stop-color:#DE0000"/>
	<stop  offset="1" style="stop-color:#000000"/>
</radialGradient>
<path fill="url(#SVGID_31_)" d="M121.4990234,23.53125c0.0214844,0.0019531,0.0429688,0.0039062,0.0654297,0.0039062
	c-0.0146484-0.0078125-0.0292969-0.0136719-0.0439453-0.0195312
	C121.5146484,23.5195312,121.5068359,23.5253906,121.4990234,23.53125z"/>
<radialGradient id="SVGID_32_" cx="129.4179688" cy="128.4765625" r="19.6670551" gradientTransform="matrix(0.9999599 0.008961 -0.008844 0.986923 -4.3802338 -102.4656982)" gradientUnits="userSpaceOnUse">
	<stop  offset="0.0545455" style="stop-color:#F2A000"/>
	<stop  offset="0.50303" style="stop-color:#DE0000"/>
	<stop  offset="1" style="stop-color:#000000"/>
</radialGradient>
<path fill="url(#SVGID_32_)" d="M129.9433594,16.2070312c-1.3427734-0.140625-3.2167969,0.4355469-4.65625,0.9160156
	c2.0517578-0.0039062,4.1015625-0.0273438,6.1542969-0.0683594c0.0410156-0.0800781,0.0810547-0.1621094,0.1201172-0.2421875
	C131.1347656,16.4882812,130.5888672,16.2734375,129.9433594,16.2070312z"/>
<radialGradient id="SVGID_33_" cx="129.4189453" cy="128.4833984" r="19.6740685" gradientTransform="matrix(0.9999599 0.008961 -0.008844 0.986923 -4.3802338 -102.4656982)" gradientUnits="userSpaceOnUse">
	<stop  offset="0.0545455" style="stop-color:#F2A000"/>
	<stop  offset="0.50303" style="stop-color:#DE0000"/>
	<stop  offset="1" style="stop-color:#000000"/>
</radialGradient>
<path fill="url(#SVGID_33_)" d="M119.3535156,22.1835938c-0.6386719-0.4785156-1.1679688-1.0351562-1.5976562-1.6367188
	c-0.3447266-0.0253906-0.6894531-0.0546875-1.0332031-0.0820312c0.7304688,1.1816406,1.7265625,2.1855469,2.9101562,2.9277344
	c0.2705078,0.0234375,0.5439453,0.046875,0.8144531,0.0683594c-0.0878906-0.0371094-0.1777344-0.0820312-0.2666016-0.1308594
	C119.5673828,22.9863281,119.2001953,22.4746094,119.3535156,22.1835938z"/>
<radialGradient id="SVGID_34_" cx="129.4189453" cy="128.4765625" r="19.6511784" gradientTransform="matrix(0.9999599 0.008961 -0.008844 0.986923 -4.3802338 -102.4656982)" gradientUnits="userSpaceOnUse">
	<stop  offset="0.0545455" style="stop-color:#F2A000"/>
	<stop  offset="0.50303" style="stop-color:#DE0000"/>
	<stop  offset="1" style="stop-color:#000000"/>
</radialGradient>
<path fill="url(#SVGID_34_)" d="M121.8164062,20.7558594c-0.5146484-0.015625-1.0292969-0.0371094-1.5449219-0.0585938
	c0.1640625,0.2734375,0.3427734,0.5410156,0.5380859,0.8007812
	C121.0224609,21.2128906,121.3710938,20.9589844,121.8164062,20.7558594z"/>
<radialGradient id="SVGID_35_" cx="129.4208984" cy="128.4882812" r="19.6751194" gradientTransform="matrix(0.9999599 0.008961 -0.008844 0.986923 -4.3802338 -102.4656982)" gradientUnits="userSpaceOnUse">
	<stop  offset="0.0545455" style="stop-color:#F2A000"/>
	<stop  offset="0.50303" style="stop-color:#DE0000"/>
	<stop  offset="1" style="stop-color:#000000"/>
</radialGradient>
<path fill="url(#SVGID_35_)" d="M132.5175781,19.6523438c0.0664062-0.3066406,0.0898438-0.6074219,0.0722656-0.8925781
	c-0.0234375,0.0019531-0.046875,0.0039062-0.0712891,0.0058594c-0.1513672,0.3164062-0.3261719,0.6230469-0.5214844,0.9238281
	C132.1708984,19.6757812,132.3447266,19.6640625,132.5175781,19.6523438z"/>
<radialGradient id="SVGID_36_" cx="129.4199219" cy="128.4902344" r="19.682724" gradientTransform="matrix(0.9999599 0.008961 -0.008844 0.986923 -4.3802338 -102.4656982)" gradientUnits="userSpaceOnUse">
	<stop  offset="0.0545455" style="stop-color:#F2A000"/>
	<stop  offset="0.50303" style="stop-color:#DE0000"/>
	<stop  offset="1" style="stop-color:#000000"/>
</radialGradient>
<path fill="url(#SVGID_36_)" d="M116.2724609,12.3979492c0.1191406-0.3032227,0.2548828-0.6079102,0.4052734-0.9111328
	c-0.0732422,0.0053711-0.1455078,0.0107422-0.21875,0.015625c-0.15625,0.2949219-0.2958984,0.5986328-0.4179688,0.9086914
	C116.1181641,12.4067383,116.1953125,12.4018555,116.2724609,12.3979492z"/>
<radialGradient id="SVGID_37_" cx="129.2412109" cy="131.6103516" r="17.4191532" gradientTransform="matrix(0.9999599 0.008961 -0.008961 0.9999599 -4.3334808 -107.90271)" gradientUnits="userSpaceOnUse">
	<stop  offset="0" style="stop-color:#F7D100"/>
	<stop  offset="0.50303" style="stop-color:#DE0000"/>
	<stop  offset="1" style="stop-color:#000000"/>
</radialGradient>
<path fill="url(#SVGID_37_)" d="M130.9707031,19.75c0.0996094-0.3203125,0.1748047-0.6269531,0.2304688-0.9199219
	c-3.9228516,0.1757812-7.8447266,0.1953125-11.7675781,0.0605469c0.1103516,0.3183594,0.2373047,0.6328125,0.3798828,0.9414062
	C123.5332031,19.9882812,127.2529297,19.9609375,130.9707031,19.75z"/>
<radialGradient id="SVGID_38_" cx="129.4189453" cy="128.4804688" r="19.6693687" gradientTransform="matrix(0.9999599 0.008961 -0.008844 0.986923 -4.3802338 -102.4656982)" gradientUnits="userSpaceOnUse">
	<stop  offset="0.0545455" style="stop-color:#F2A000"/>
	<stop  offset="0.50303" style="stop-color:#DE0000"/>
	<stop  offset="1" style="stop-color:#000000"/>
</radialGradient>
<path fill="url(#SVGID_38_)" d="M130.9707031,19.75c0.0996094-0.3203125,0.1748047-0.6269531,0.2304688-0.9199219
	c-3.9228516,0.1757812-7.8447266,0.1953125-11.7675781,0.0605469c0.1103516,0.3183594,0.2373047,0.6328125,0.3798828,0.9414062
	C123.5332031,19.9882812,127.2529297,19.9609375,130.9707031,19.75z"/>
<radialGradient id="SVGID_39_" cx="129.2392578" cy="131.6083984" r="17.4241486" gradientTransform="matrix(0.9999599 0.008961 -0.008961 0.9999599 -4.3334808 -107.90271)" gradientUnits="userSpaceOnUse">
	<stop  offset="0" style="stop-color:#F7D100"/>
	<stop  offset="0.50303" style="stop-color:#DE0000"/>
	<stop  offset="1" style="stop-color:#000000"/>
</radialGradient>
<path fill="url(#SVGID_39_)" d="M132.2392578,20.4765625c-0.2988281,0.0253906-0.5986328,0.0488281-0.8955078,0.0703125
	c-0.3583984,0.4082031-0.765625,0.7910156-1.2226562,1.1328125c0.2128906-0.3710938,0.390625-0.7324219,0.5400391-1.0859375
	c-1.140625,0.0761719-2.2792969,0.1289062-3.4189453,0.1621094c0.8154297,0.3652344,1.3261719,0.8867188,1.3212891,1.4628906
	c-0.0048828,0.5136719-0.421875,0.9804688-1.0986328,1.3203125c0.65625-0.0351562,1.3134766-0.0820312,1.9707031-0.1425781
	c0.2607422-0.1640625,0.5146484-0.3398438,0.7568359-0.5292969C131.2041016,22.1074219,131.8701172,21.28125,132.2392578,20.4765625
	z"/>
<radialGradient id="SVGID_40_" cx="129.4179688" cy="128.4824219" r="19.6758709" gradientTransform="matrix(0.9999599 0.008961 -0.008844 0.986923 -4.3802338 -102.4656982)" gradientUnits="userSpaceOnUse">
	<stop  offset="0.0545455" style="stop-color:#F2A000"/>
	<stop  offset="0.50303" style="stop-color:#DE0000"/>
	<stop  offset="1" style="stop-color:#000000"/>
</radialGradient>
<path fill="url(#SVGID_40_)" d="M132.2392578,20.4765625c-0.2988281,0.0253906-0.5986328,0.0488281-0.8955078,0.0703125
	c-0.3583984,0.4082031-0.765625,0.7910156-1.2226562,1.1328125c0.2128906-0.3710938,0.390625-0.7324219,0.5400391-1.0859375
	c-1.140625,0.0761719-2.2792969,0.1289062-3.4189453,0.1621094c0.8154297,0.3652344,1.3261719,0.8867188,1.3212891,1.4628906
	c-0.0048828,0.5136719-0.421875,0.9804688-1.0986328,1.3203125c0.65625-0.0351562,1.3134766-0.0820312,1.9707031-0.1425781
	c0.2607422-0.1640625,0.5146484-0.3398438,0.7568359-0.5292969C131.2041016,22.1074219,131.8701172,21.28125,132.2392578,20.4765625
	z"/>
<radialGradient id="SVGID_41_" cx="129.2382812" cy="131.6103516" r="17.4165764" gradientTransform="matrix(0.9999599 0.008961 -0.008961 0.9999599 -4.3334808 -107.90271)" gradientUnits="userSpaceOnUse">
	<stop  offset="0" style="stop-color:#F7D100"/>
	<stop  offset="0.50303" style="stop-color:#DE0000"/>
	<stop  offset="1" style="stop-color:#000000"/>
</radialGradient>
<path fill="url(#SVGID_41_)" d="M117.2246094,19.6953125c-0.1621094-0.3027344-0.3037109-0.609375-0.4257812-0.9199219
	c-0.3027344-0.015625-0.6054688-0.03125-0.9082031-0.0507812c0.109375,0.3085938,0.234375,0.6113281,0.375,0.9042969
	C116.5859375,19.6523438,116.9052734,19.6738281,117.2246094,19.6953125z"/>
<radialGradient id="SVGID_42_" cx="129.4160156" cy="128.4882812" r="19.678751" gradientTransform="matrix(0.9999599 0.008961 -0.008844 0.986923 -4.3802338 -102.4656982)" gradientUnits="userSpaceOnUse">
	<stop  offset="0.0545455" style="stop-color:#F2A000"/>
	<stop  offset="0.50303" style="stop-color:#DE0000"/>
	<stop  offset="1" style="stop-color:#000000"/>
</radialGradient>
<path fill="url(#SVGID_42_)" d="M117.2246094,19.6953125c-0.1621094-0.3027344-0.3037109-0.609375-0.4257812-0.9199219
	c-0.3027344-0.015625-0.6054688-0.03125-0.9082031-0.0507812c0.109375,0.3085938,0.234375,0.6113281,0.375,0.9042969
	C116.5859375,19.6523438,116.9052734,19.6738281,117.2246094,19.6953125z"/>
<radialGradient id="SVGID_43_" cx="129.2412109" cy="131.6083984" r="17.4179497" gradientTransform="matrix(0.9999599 0.008961 -0.008961 0.9999599 -4.3334808 -107.90271)" gradientUnits="userSpaceOnUse">
	<stop  offset="0" style="stop-color:#F7D100"/>
	<stop  offset="0.50303" style="stop-color:#DE0000"/>
	<stop  offset="1" style="stop-color:#000000"/>
</radialGradient>
<path fill="url(#SVGID_43_)" d="M128.5634766,22.21875c0.0048828-0.5761719-0.5058594-1.0976562-1.3212891-1.4628906
	c-1.8085938,0.0527344-3.6162109,0.0527344-5.4257812,0c-0.4453125,0.203125-0.7939453,0.4570312-1.0068359,0.7421875l0,0
	c0.5429688,0.7226562,1.2050781,1.3769531,1.9980469,1.9375c0.1777344-0.0742188,0.4277344-0.0722656,0.6767578,0.0234375
	c0.1044922,0.0410156,0.1972656,0.09375,0.2783203,0.1523438c1.2333984,0.0195312,2.4677734-0.0039062,3.7021484-0.0722656
	C128.1416016,23.1992188,128.5585938,22.7324219,128.5634766,22.21875z"/>
<radialGradient id="SVGID_44_" cx="129.4189453" cy="128.4814453" r="19.670332" gradientTransform="matrix(0.9999599 0.008961 -0.008844 0.986923 -4.3802338 -102.4656982)" gradientUnits="userSpaceOnUse">
	<stop  offset="0.0545455" style="stop-color:#F2A000"/>
	<stop  offset="0.50303" style="stop-color:#DE0000"/>
	<stop  offset="1" style="stop-color:#000000"/>
</radialGradient>
<path fill="url(#SVGID_44_)" d="M128.5634766,22.21875c0.0048828-0.5761719-0.5058594-1.0976562-1.3212891-1.4628906
	c-1.8085938,0.0527344-3.6162109,0.0527344-5.4257812,0c-0.4453125,0.203125-0.7939453,0.4570312-1.0068359,0.7421875l0,0
	c0.5429688,0.7226562,1.2050781,1.3769531,1.9980469,1.9375c0.1777344-0.0742188,0.4277344-0.0722656,0.6767578,0.0234375
	c0.1044922,0.0410156,0.1972656,0.09375,0.2783203,0.1523438c1.2333984,0.0195312,2.4677734-0.0039062,3.7021484-0.0722656
	C128.1416016,23.1992188,128.5585938,22.7324219,128.5634766,22.21875z"/>
<radialGradient id="SVGID_45_" cx="129.6113281" cy="131.5322266" r="8.8849115" gradientTransform="matrix(0.9999599 0.008961 -0.008961 0.9999599 -4.3334808 -107.90271)" gradientUnits="userSpaceOnUse">
	<stop  offset="0" style="stop-color:#FBEA43"/>
	<stop  offset="0.212121" style="stop-color:#EE9400"/>
	<stop  offset="0.688312" style="stop-color:#E61200"/>
	<stop  offset="1" style="stop-color:#DE0000"/>
</radialGradient>
<path fill="url(#SVGID_45_)" d="M128.5634766,22.21875c0.0048828-0.5761719-0.5058594-1.0976562-1.3212891-1.4628906
	c-1.8085938,0.0527344-3.6162109,0.0527344-5.4257812,0c-0.4453125,0.203125-0.7939453,0.4570312-1.0068359,0.7421875l0,0
	c0.5429688,0.7226562,1.2050781,1.3769531,1.9980469,1.9375c0.1777344-0.0742188,0.4277344-0.0722656,0.6767578,0.0234375
	c0.1044922,0.0410156,0.1972656,0.09375,0.2783203,0.1523438c1.2333984,0.0195312,2.4677734-0.0039062,3.7021484-0.0722656
	C128.1416016,23.1992188,128.5585938,22.7324219,128.5634766,22.21875z"/>
<radialGradient id="SVGID_46_" cx="129.2412109" cy="131.6210938" r="17.4313202" gradientTransform="matrix(0.9999599 0.008961 -0.008961 0.9999599 -4.3334808 -107.90271)" gradientUnits="userSpaceOnUse">
	<stop  offset="0" style="stop-color:#F7D100"/>
	<stop  offset="0.50303" style="stop-color:#DE0000"/>
	<stop  offset="1" style="stop-color:#000000"/>
</radialGradient>
<path fill="url(#SVGID_46_)" d="M130.2480469,12.2744141c0.1796875-0.2836914,0.3066406-0.5849609,0.3740234-0.8989258
	c-3.4882812-0.1860352-6.9775391-0.2124023-10.4658203-0.0771484c-0.1767578,0.3041992-0.3408203,0.621582-0.4882812,0.9487305
	C123.1953125,12.1308594,126.7226562,12.1396484,130.2480469,12.2744141z"/>
<radialGradient id="SVGID_47_" cx="129.6113281" cy="114.8955078" r="8.664875" gradientTransform="matrix(0.9999599 0.008961 -0.008961 0.9999599 -4.3334808 -107.90271)" gradientUnits="userSpaceOnUse">
	<stop  offset="0" style="stop-color:#F7BC00"/>
	<stop  offset="0.50303" style="stop-color:#E20000"/>
	<stop  offset="0.7694809" style="stop-color:#DE0000"/>
</radialGradient>
<path fill="url(#SVGID_47_)" d="M130.2480469,12.2744141c0.1796875-0.2836914,0.3066406-0.5849609,0.3740234-0.8989258
	c-3.4882812-0.1860352-6.9775391-0.2124023-10.4658203-0.0771484c-0.1767578,0.3041992-0.3408203,0.621582-0.4882812,0.9487305
	C123.1953125,12.1308594,126.7226562,12.1396484,130.2480469,12.2744141z"/>
<radialGradient id="SVGID_48_" cx="124.3535156" cy="2.949707" r="12.0753145" gradientUnits="userSpaceOnUse">
	<stop  offset="0.453694" style="stop-color:#F7C900"/>
	<stop  offset="0.5096143" style="stop-color:#F39E00"/>
	<stop  offset="0.6018059" style="stop-color:#EC5C00"/>
	<stop  offset="0.6688923" style="stop-color:#E83300"/>
	<stop  offset="0.7033449" style="stop-color:#E62300"/>
	<stop  offset="0.7899302" style="stop-color:#C01800"/>
	<stop  offset="0.9316836" style="stop-color:#870700"/>
	<stop  offset="1" style="stop-color:#710000"/>
</radialGradient>
<path fill="url(#SVGID_48_)" d="M130.2480469,12.2744141c0.1796875-0.2836914,0.3066406-0.5849609,0.3740234-0.8989258
	c-3.4882812-0.1860352-6.9775391-0.2124023-10.4658203-0.0771484c-0.1767578,0.3041992-0.3408203,0.621582-0.4882812,0.9487305
	C123.1953125,12.1308594,126.7226562,12.1396484,130.2480469,12.2744141z"/>
<radialGradient id="SVGID_49_" cx="129.2412109" cy="131.6123047" r="17.4220104" gradientTransform="matrix(0.9999599 0.008961 -0.008961 0.9999599 -4.3334808 -107.90271)" gradientUnits="userSpaceOnUse">
	<stop  offset="0" style="stop-color:#F7D100"/>
	<stop  offset="0.50303" style="stop-color:#DE0000"/>
	<stop  offset="1" style="stop-color:#000000"/>
</radialGradient>
<path fill="url(#SVGID_49_)" d="M118.7636719,10.0805664c0.0214844-0.019043,0.0410156-0.0380859,0.0625-0.0571289
	c0.0507812-0.0766602,0.1074219-0.1518555,0.1728516-0.2236328c0.1953125-0.2148438,0.4257812-0.3662109,0.6533203-0.4458008
	c1.2675781-0.9033203,2.6640625-1.3789062,3.7939453-1.3310547c-0.875,0.3422852-1.8798828,1.2275391-2.7265625,2.4047852
	c3.3134766-0.137207,6.6279297-0.0966797,9.9414062,0.121582c-0.1464844-1.2109375-1.1748047-2.2709961-2.6767578-2.9145508
	c-2.2285156-0.1425781-4.4570312-0.1459961-6.6855469-0.0097656C119.9980469,8.1816406,119.0625,9.0571289,118.7636719,10.0805664z"
	/>
<radialGradient id="SVGID_50_" cx="129.6123047" cy="114.8994141" r="8.6630764" gradientTransform="matrix(0.9999599 0.008961 -0.008961 0.9999599 -4.3334808 -107.90271)" gradientUnits="userSpaceOnUse">
	<stop  offset="0" style="stop-color:#F7BC00"/>
	<stop  offset="0.50303" style="stop-color:#E20000"/>
	<stop  offset="0.7694809" style="stop-color:#DE0000"/>
</radialGradient>
<path fill="url(#SVGID_50_)" d="M118.7636719,10.0805664c0.0214844-0.019043,0.0410156-0.0380859,0.0625-0.0571289
	c0.0507812-0.0766602,0.1074219-0.1518555,0.1728516-0.2236328c0.1953125-0.2148438,0.4257812-0.3662109,0.6533203-0.4458008
	c1.2675781-0.9033203,2.6640625-1.3789062,3.7939453-1.3310547c-0.875,0.3422852-1.8798828,1.2275391-2.7265625,2.4047852
	c3.3134766-0.137207,6.6279297-0.0966797,9.9414062,0.121582c-0.1464844-1.2109375-1.1748047-2.2709961-2.6767578-2.9145508
	c-2.2285156-0.1425781-4.4570312-0.1459961-6.6855469-0.0097656C119.9980469,8.1816406,119.0625,9.0571289,118.7636719,10.0805664z"
	/>
<radialGradient id="SVGID_51_" cx="124.3544922" cy="2.9477539" r="12.0770702" gradientUnits="userSpaceOnUse">
	<stop  offset="0.453694" style="stop-color:#F7C900"/>
	<stop  offset="0.5096143" style="stop-color:#F39E00"/>
	<stop  offset="0.6018059" style="stop-color:#EC5C00"/>
	<stop  offset="0.6688923" style="stop-color:#E83300"/>
	<stop  offset="0.7033449" style="stop-color:#E62300"/>
	<stop  offset="0.7899302" style="stop-color:#C01800"/>
	<stop  offset="0.9316836" style="stop-color:#870700"/>
	<stop  offset="1" style="stop-color:#710000"/>
</radialGradient>
<path fill="url(#SVGID_51_)" d="M118.7636719,10.0805664c0.0214844-0.019043,0.0410156-0.0380859,0.0625-0.0571289
	c0.0507812-0.0766602,0.1074219-0.1518555,0.1728516-0.2236328c0.1953125-0.2148438,0.4257812-0.3662109,0.6533203-0.4458008
	c1.2675781-0.9033203,2.6640625-1.3789062,3.7939453-1.3310547c-0.875,0.3422852-1.8798828,1.2275391-2.7265625,2.4047852
	c3.3134766-0.137207,6.6279297-0.0966797,9.9414062,0.121582c-0.1464844-1.2109375-1.1748047-2.2709961-2.6767578-2.9145508
	c-2.2285156-0.1425781-4.4570312-0.1459961-6.6855469-0.0097656C119.9980469,8.1816406,119.0625,9.0571289,118.7636719,10.0805664z"
	/>
<radialGradient id="SVGID_52_" cx="129.2402344" cy="131.6289062" r="17.4482002" gradientTransform="matrix(0.9999599 0.008961 -0.008961 0.9999599 -4.3334808 -107.90271)" gradientUnits="userSpaceOnUse">
	<stop  offset="0" style="stop-color:#F7D100"/>
	<stop  offset="0.50303" style="stop-color:#DE0000"/>
	<stop  offset="1" style="stop-color:#000000"/>
</radialGradient>
<path fill="url(#SVGID_52_)" d="M127.1953125,14.3105469c-1.6542969-0.0097656-3.3105469-0.0117188-4.9658203-0.0019531
	c0.7363281,0.2128906,1.5498047,0.3359375,2.4072266,0.34375C125.5498047,14.6601562,126.4179688,14.5371094,127.1953125,14.3105469
	z"/>
<radialGradient id="SVGID_53_" cx="129.6113281" cy="114.8896484" r="8.6737185" gradientTransform="matrix(0.9999599 0.008961 -0.008961 0.9999599 -4.3334808 -107.90271)" gradientUnits="userSpaceOnUse">
	<stop  offset="0" style="stop-color:#F7BC00"/>
	<stop  offset="0.50303" style="stop-color:#E20000"/>
	<stop  offset="0.7694809" style="stop-color:#DE0000"/>
</radialGradient>
<path fill="url(#SVGID_53_)" d="M127.1953125,14.3105469c-1.6542969-0.0097656-3.3105469-0.0117188-4.9658203-0.0019531
	c0.7363281,0.2128906,1.5498047,0.3359375,2.4072266,0.34375C125.5498047,14.6601562,126.4179688,14.5371094,127.1953125,14.3105469
	z"/>
<radialGradient id="SVGID_54_" cx="124.3535156" cy="2.9199219" r="12.1046677" gradientUnits="userSpaceOnUse">
	<stop  offset="0.453694" style="stop-color:#F7C900"/>
	<stop  offset="0.5096143" style="stop-color:#F39E00"/>
	<stop  offset="0.6018059" style="stop-color:#EC5C00"/>
	<stop  offset="0.6688923" style="stop-color:#E83300"/>
	<stop  offset="0.7033449" style="stop-color:#E62300"/>
	<stop  offset="0.7899302" style="stop-color:#C01800"/>
	<stop  offset="0.9316836" style="stop-color:#870700"/>
	<stop  offset="1" style="stop-color:#710000"/>
</radialGradient>
<path fill="url(#SVGID_54_)" d="M127.1953125,14.3105469c-1.6542969-0.0097656-3.3105469-0.0117188-4.9658203-0.0019531
	c0.7363281,0.2128906,1.5498047,0.3359375,2.4072266,0.34375C125.5498047,14.6601562,126.4179688,14.5371094,127.1953125,14.3105469
	z"/>
<radialGradient id="SVGID_55_" cx="129.2402344" cy="131.6074219" r="17.4155521" gradientTransform="matrix(0.9999599 0.008961 -0.008961 0.9999599 -4.3334808 -107.90271)" gradientUnits="userSpaceOnUse">
	<stop  offset="0" style="stop-color:#F7D100"/>
	<stop  offset="0.50303" style="stop-color:#DE0000"/>
	<stop  offset="1" style="stop-color:#000000"/>
</radialGradient>
<path fill="url(#SVGID_55_)" d="M118.9951172,14.3417969c-0.8916016,0.0117188-1.7851562,0.0273438-2.6767578,0.0449219
	c-0.0039062,0.0175781-0.0087891,0.0351562-0.0117188,0.0527344c-0.1435547,0.7382812-0.1513672,1.6367188,0.0078125,2.5839844
	c0.8896484,0.0214844,1.7792969,0.0410156,2.6689453,0.0546875c-0.0449219-0.2890625-0.0800781-0.5800781-0.1025391-0.8730469
	C118.8330078,15.5859375,118.8789062,14.9570312,118.9951172,14.3417969z"/>
<radialGradient id="SVGID_56_" cx="129.2402344" cy="131.6074219" r="17.4153728" gradientTransform="matrix(0.9999599 0.008961 -0.008961 0.9999599 -4.3334808 -107.90271)" gradientUnits="userSpaceOnUse">
	<stop  offset="0" style="stop-color:#FBEA32"/>
	<stop  offset="0.50303" style="stop-color:#E20000"/>
	<stop  offset="1" style="stop-color:#000000"/>
</radialGradient>
<path fill="url(#SVGID_56_)" d="M118.9951172,14.3417969c-0.8916016,0.0117188-1.7851562,0.0273438-2.6767578,0.0449219
	c-0.0039062,0.0175781-0.0087891,0.0351562-0.0117188,0.0527344c-0.1435547,0.7382812-0.1513672,1.6367188,0.0078125,2.5839844
	c0.8896484,0.0214844,1.7792969,0.0410156,2.6689453,0.0546875c-0.0449219-0.2890625-0.0800781-0.5800781-0.1025391-0.8730469
	C118.8330078,15.5859375,118.8789062,14.9570312,118.9951172,14.3417969z"/>
<radialGradient id="SVGID_57_" cx="129.2431641" cy="131.6181641" r="17.4306488" gradientTransform="matrix(0.9999599 0.008961 -0.008961 0.9999599 -4.3334808 -107.90271)" gradientUnits="userSpaceOnUse">
	<stop  offset="0" style="stop-color:#F7D100"/>
	<stop  offset="0.50303" style="stop-color:#DE0000"/>
	<stop  offset="1" style="stop-color:#000000"/>
</radialGradient>
<path fill="url(#SVGID_57_)" d="M117.4228516,12.3378906c0.0332031-0.0810547,0.0810547-0.1601562,0.1425781-0.2333984
	c0.2587891-0.3076172,0.6611328-0.3950195,0.8994141-0.1943359c0.1083984,0.090332,0.1640625,0.2255859,0.1679688,0.3745117
	c0.1640625-0.0063477,0.3291016-0.0131836,0.4921875-0.0195312c-0.0244141-0.0380859-0.0488281-0.0771484-0.0722656-0.1157227
	c-0.0009766-0.0019531-0.0019531-0.0043945-0.0019531-0.0063477c-0.0214844-0.0351562-0.0419922-0.0708008-0.0615234-0.1069336
	c-0.0019531-0.0039062-0.0048828-0.0083008-0.0068359-0.012207c-0.0400391-0.0761719-0.0761719-0.152832-0.1103516-0.230957
	c-0.0019531-0.0058594-0.0039062-0.0112305-0.0068359-0.0166016c-0.0126953-0.0332031-0.0273438-0.065918-0.0390625-0.0996094
	c-0.0029297-0.0068359-0.0058594-0.0141602-0.0078125-0.0219727c-0.0283203-0.0766602-0.0517578-0.1538086-0.0722656-0.2324219
	c-0.0029297-0.0087891-0.0048828-0.0175781-0.0078125-0.0263672c-0.0029297-0.0107422-0.0058594-0.0219727-0.0068359-0.0332031
	c-0.3789062,0.0200195-0.7587891,0.0415039-1.1367188,0.0644531c-0.2060547,0.293457-0.3935547,0.6040039-0.5625,0.9296875
	C117.1630859,12.3505859,117.2929688,12.3447266,117.4228516,12.3378906z"/>
<radialGradient id="SVGID_58_" cx="129.2431641" cy="131.6181641" r="17.4305534" gradientTransform="matrix(0.9999599 0.008961 -0.008961 0.9999599 -4.3334808 -107.90271)" gradientUnits="userSpaceOnUse">
	<stop  offset="0" style="stop-color:#FBEA32"/>
	<stop  offset="0.50303" style="stop-color:#E20000"/>
	<stop  offset="1" style="stop-color:#000000"/>
</radialGradient>
<path fill="url(#SVGID_58_)" d="M117.4228516,12.3378906c0.0332031-0.0810547,0.0810547-0.1601562,0.1425781-0.2333984
	c0.2587891-0.3076172,0.6611328-0.3950195,0.8994141-0.1943359c0.1083984,0.090332,0.1640625,0.2255859,0.1679688,0.3745117
	c0.1640625-0.0063477,0.3291016-0.0131836,0.4921875-0.0195312c-0.0244141-0.0380859-0.0488281-0.0771484-0.0722656-0.1157227
	c-0.0009766-0.0019531-0.0019531-0.0043945-0.0019531-0.0063477c-0.0214844-0.0351562-0.0419922-0.0708008-0.0615234-0.1069336
	c-0.0019531-0.0039062-0.0048828-0.0083008-0.0068359-0.012207c-0.0400391-0.0761719-0.0761719-0.152832-0.1103516-0.230957
	c-0.0019531-0.0058594-0.0039062-0.0112305-0.0068359-0.0166016c-0.0126953-0.0332031-0.0273438-0.065918-0.0390625-0.0996094
	c-0.0029297-0.0068359-0.0058594-0.0141602-0.0078125-0.0219727c-0.0283203-0.0766602-0.0517578-0.1538086-0.0722656-0.2324219
	c-0.0029297-0.0087891-0.0048828-0.0175781-0.0078125-0.0263672c-0.0029297-0.0107422-0.0058594-0.0219727-0.0068359-0.0332031
	c-0.3789062,0.0200195-0.7587891,0.0415039-1.1367188,0.0644531c-0.2060547,0.293457-0.3935547,0.6040039-0.5625,0.9296875
	C117.1630859,12.3505859,117.2929688,12.3447266,117.4228516,12.3378906z"/>
<radialGradient id="SVGID_59_" cx="129.2382812" cy="131.6025391" r="17.4106293" gradientTransform="matrix(0.9999599 0.008961 -0.008961 0.9999599 -4.3334808 -107.90271)" gradientUnits="userSpaceOnUse">
	<stop  offset="0" style="stop-color:#F7D100"/>
	<stop  offset="0.50303" style="stop-color:#DE0000"/>
	<stop  offset="1" style="stop-color:#000000"/>
</radialGradient>
<path fill="url(#SVGID_59_)" d="M118.7636719,10.0810547c0,0,0,0,0-0.0004883
	c-0.1621094,0.1518555-0.3193359,0.3125-0.4726562,0.4794922c0.1044922-0.0068359,0.2099609-0.0141602,0.3144531-0.0205078
	c0.0253906-0.1210938,0.0712891-0.2451172,0.1337891-0.3676758
	C118.7470703,10.1411133,118.7548828,10.1108398,118.7636719,10.0810547z"/>
<radialGradient id="SVGID_60_" cx="129.2382812" cy="131.6025391" r="17.4105606" gradientTransform="matrix(0.9999599 0.008961 -0.008961 0.9999599 -4.3334808 -107.90271)" gradientUnits="userSpaceOnUse">
	<stop  offset="0" style="stop-color:#FBEA32"/>
	<stop  offset="0.50303" style="stop-color:#E20000"/>
	<stop  offset="1" style="stop-color:#000000"/>
</radialGradient>
<path fill="url(#SVGID_60_)" d="M118.7636719,10.0810547c0,0,0,0,0-0.0004883
	c-0.1621094,0.1518555-0.3193359,0.3125-0.4726562,0.4794922c0.1044922-0.0068359,0.2099609-0.0141602,0.3144531-0.0205078
	c0.0253906-0.1210938,0.0712891-0.2451172,0.1337891-0.3676758
	C118.7470703,10.1411133,118.7548828,10.1108398,118.7636719,10.0810547z"/>
<radialGradient id="SVGID_61_" cx="129.2412109" cy="131.625" r="17.4815006" gradientTransform="matrix(0.9999599 0.008961 -0.008961 0.9999599 -4.3334808 -107.90271)" gradientUnits="userSpaceOnUse">
	<stop  offset="0" style="stop-color:#F7D100"/>
	<stop  offset="0.50303" style="stop-color:#DE0000"/>
	<stop  offset="1" style="stop-color:#000000"/>
</radialGradient>
<path fill="url(#SVGID_61_)" d="M121.625,23.4746094c-0.015625-0.0078125-0.0302734-0.015625-0.0458984-0.0253906
	c-0.015625,0.0253906-0.0341797,0.046875-0.0585938,0.0664062c0.0146484,0.0058594,0.0292969,0.0117188,0.0439453,0.0195312
	c0.0654297,0.0019531,0.1318359,0.0058594,0.1982422,0.0097656c-0.0390625-0.0195312-0.078125-0.0390625-0.1171875-0.0585938
	C121.6396484,23.4824219,121.6318359,23.4785156,121.625,23.4746094z"/>
<radialGradient id="SVGID_62_" cx="129.4267578" cy="128.4980469" r="19.7825394" gradientTransform="matrix(0.9999599 0.008961 -0.008844 0.986923 -4.3802338 -102.4656982)" gradientUnits="userSpaceOnUse">
	<stop  offset="0.0545455" style="stop-color:#F2A000"/>
	<stop  offset="0.50303" style="stop-color:#DE0000"/>
	<stop  offset="1" style="stop-color:#000000"/>
</radialGradient>
<path fill="url(#SVGID_62_)" d="M121.625,23.4746094c-0.015625-0.0078125-0.0302734-0.015625-0.0458984-0.0253906
	c-0.015625,0.0253906-0.0341797,0.046875-0.0585938,0.0664062c0.0146484,0.0058594,0.0292969,0.0117188,0.0439453,0.0195312
	c0.0654297,0.0019531,0.1318359,0.0058594,0.1982422,0.0097656c-0.0390625-0.0195312-0.078125-0.0390625-0.1171875-0.0585938
	C121.6396484,23.4824219,121.6318359,23.4785156,121.625,23.4746094z"/>
<radialGradient id="SVGID_63_" cx="129.4277344" cy="128.4990234" r="19.7952671" gradientTransform="matrix(0.9999599 0.008961 -0.008844 0.986923 -4.3802338 -102.4656982)" gradientUnits="userSpaceOnUse">
	<stop  offset="0.0545455" style="stop-color:#F7D900"/>
	<stop  offset="0.50303" style="stop-color:#E20000"/>
	<stop  offset="1" style="stop-color:#000000"/>
</radialGradient>
<path fill="url(#SVGID_63_)" d="M121.625,23.4746094c-0.015625-0.0078125-0.0302734-0.015625-0.0458984-0.0253906
	c-0.015625,0.0253906-0.0341797,0.046875-0.0585938,0.0664062c0.0146484,0.0058594,0.0292969,0.0117188,0.0439453,0.0195312
	c0.0654297,0.0019531,0.1318359,0.0058594,0.1982422,0.0097656c-0.0390625-0.0195312-0.078125-0.0390625-0.1171875-0.0585938
	C121.6396484,23.4824219,121.6318359,23.4785156,121.625,23.4746094z"/>
<radialGradient id="SVGID_64_" cx="129.2392578" cy="131.6103516" r="17.414156" gradientTransform="matrix(0.9999599 0.008961 -0.008961 0.9999599 -4.3334808 -107.90271)" gradientUnits="userSpaceOnUse">
	<stop  offset="0" style="stop-color:#F7D100"/>
	<stop  offset="0.50303" style="stop-color:#DE0000"/>
	<stop  offset="1" style="stop-color:#000000"/>
</radialGradient>
<path fill="url(#SVGID_64_)" d="M119.3535156,22.1835938c0.0009766-0.0019531,0.0009766-0.0039062,0.0029297-0.0058594
	c0.1455078-0.2597656,0.6689453-0.2519531,1.2197266,0.0019531c0-0.0117188-0.0019531-0.0234375-0.0019531-0.0332031
	c0.0009766-0.03125,0.0019531-0.0625,0.0048828-0.09375c0.0019531-0.0097656,0.0039062-0.0214844,0.0058594-0.0332031
	c0.0029297-0.0175781,0.0058594-0.0390625,0.0087891-0.0566406c0.0029297-0.0136719,0.0068359-0.0273438,0.0097656-0.0410156
	c0.0039062-0.015625,0.0078125-0.0332031,0.0136719-0.0488281c0.0039062-0.0136719,0.0087891-0.0292969,0.0136719-0.0449219
	c0.0058594-0.0136719,0.0097656-0.0273438,0.015625-0.0390625c0.0068359-0.0175781,0.0136719-0.0332031,0.0205078-0.0507812
	c0.0039062-0.0097656,0.0097656-0.0195312,0.0146484-0.0292969c0.0341797-0.0703125,0.0771484-0.1425781,0.1279297-0.2109375
	c-0.1953125-0.2597656-0.3740234-0.5273438-0.5380859-0.8007812c-0.8388672-0.0390625-1.6777344-0.0898438-2.515625-0.1503906
	C118.1855469,21.1484375,118.7148438,21.7050781,119.3535156,22.1835938z"/>
<radialGradient id="SVGID_65_" cx="129.4189453" cy="128.4794922" r="19.6623287" gradientTransform="matrix(0.9999599 0.008961 -0.008844 0.986923 -4.3802338 -102.4656982)" gradientUnits="userSpaceOnUse">
	<stop  offset="0.0545455" style="stop-color:#F2A000"/>
	<stop  offset="0.50303" style="stop-color:#DE0000"/>
	<stop  offset="1" style="stop-color:#000000"/>
</radialGradient>
<path fill="url(#SVGID_65_)" d="M119.3535156,22.1835938c0.0009766-0.0019531,0.0009766-0.0039062,0.0029297-0.0058594
	c0.1455078-0.2597656,0.6689453-0.2519531,1.2197266,0.0019531c0-0.0117188-0.0019531-0.0234375-0.0019531-0.0332031
	c0.0009766-0.03125,0.0019531-0.0625,0.0048828-0.09375c0.0019531-0.0097656,0.0039062-0.0214844,0.0058594-0.0332031
	c0.0029297-0.0175781,0.0058594-0.0390625,0.0087891-0.0566406c0.0029297-0.0136719,0.0068359-0.0273438,0.0097656-0.0410156
	c0.0039062-0.015625,0.0078125-0.0332031,0.0136719-0.0488281c0.0039062-0.0136719,0.0087891-0.0292969,0.0136719-0.0449219
	c0.0058594-0.0136719,0.0097656-0.0273438,0.015625-0.0390625c0.0068359-0.0175781,0.0136719-0.0332031,0.0205078-0.0507812
	c0.0039062-0.0097656,0.0097656-0.0195312,0.0146484-0.0292969c0.0341797-0.0703125,0.0771484-0.1425781,0.1279297-0.2109375
	c-0.1953125-0.2597656-0.3740234-0.5273438-0.5380859-0.8007812c-0.8388672-0.0390625-1.6777344-0.0898438-2.515625-0.1503906
	C118.1855469,21.1484375,118.7148438,21.7050781,119.3535156,22.1835938z"/>
<radialGradient id="SVGID_66_" cx="129.4189453" cy="128.4794922" r="19.6653481" gradientTransform="matrix(0.9999599 0.008961 -0.008844 0.986923 -4.3802338 -102.4656982)" gradientUnits="userSpaceOnUse">
	<stop  offset="0.0545455" style="stop-color:#F7D900"/>
	<stop  offset="0.50303" style="stop-color:#E20000"/>
	<stop  offset="1" style="stop-color:#000000"/>
</radialGradient>
<path fill="url(#SVGID_66_)" d="M119.3535156,22.1835938c0.0009766-0.0019531,0.0009766-0.0039062,0.0029297-0.0058594
	c0.1455078-0.2597656,0.6689453-0.2519531,1.2197266,0.0019531c0-0.0117188-0.0019531-0.0234375-0.0019531-0.0332031
	c0.0009766-0.03125,0.0019531-0.0625,0.0048828-0.09375c0.0019531-0.0097656,0.0039062-0.0214844,0.0058594-0.0332031
	c0.0029297-0.0175781,0.0058594-0.0390625,0.0087891-0.0566406c0.0029297-0.0136719,0.0068359-0.0273438,0.0097656-0.0410156
	c0.0039062-0.015625,0.0078125-0.0332031,0.0136719-0.0488281c0.0039062-0.0136719,0.0087891-0.0292969,0.0136719-0.0449219
	c0.0058594-0.0136719,0.0097656-0.0273438,0.015625-0.0390625c0.0068359-0.0175781,0.0136719-0.0332031,0.0205078-0.0507812
	c0.0039062-0.0097656,0.0097656-0.0195312,0.0146484-0.0292969c0.0341797-0.0703125,0.0771484-0.1425781,0.1279297-0.2109375
	c-0.1953125-0.2597656-0.3740234-0.5273438-0.5380859-0.8007812c-0.8388672-0.0390625-1.6777344-0.0898438-2.515625-0.1503906
	C118.1855469,21.1484375,118.7148438,21.7050781,119.3535156,22.1835938z"/>
<radialGradient id="SVGID_67_" cx="129.2402344" cy="131.6113281" r="17.4211502" gradientTransform="matrix(0.9999599 0.008961 -0.008961 0.9999599 -4.3334808 -107.90271)" gradientUnits="userSpaceOnUse">
	<stop  offset="0" style="stop-color:#F7D100"/>
	<stop  offset="0.50303" style="stop-color:#DE0000"/>
	<stop  offset="1" style="stop-color:#000000"/>
</radialGradient>
<path fill="url(#SVGID_67_)" d="M119.8134766,19.8320312c-0.1425781-0.3085938-0.2695312-0.6230469-0.3798828-0.9414062
	c-0.8789062-0.03125-1.7568359-0.0703125-2.6347656-0.1152344c0.1220703,0.3105469,0.2636719,0.6171875,0.4257812,0.9199219
	C118.0878906,19.75,118.9511719,19.796875,119.8134766,19.8320312z"/>
<radialGradient id="SVGID_68_" cx="129.4189453" cy="128.4785156" r="19.6647816" gradientTransform="matrix(0.9999599 0.008961 -0.008844 0.986923 -4.3802338 -102.4656982)" gradientUnits="userSpaceOnUse">
	<stop  offset="0.0545455" style="stop-color:#F2A000"/>
	<stop  offset="0.50303" style="stop-color:#DE0000"/>
	<stop  offset="1" style="stop-color:#000000"/>
</radialGradient>
<path fill="url(#SVGID_68_)" d="M119.8134766,19.8320312c-0.1425781-0.3085938-0.2695312-0.6230469-0.3798828-0.9414062
	c-0.8789062-0.03125-1.7568359-0.0703125-2.6347656-0.1152344c0.1220703,0.3105469,0.2636719,0.6171875,0.4257812,0.9199219
	C118.0878906,19.75,118.9511719,19.796875,119.8134766,19.8320312z"/>
<radialGradient id="SVGID_69_" cx="129.4189453" cy="128.4785156" r="19.666481" gradientTransform="matrix(0.9999599 0.008961 -0.008844 0.986923 -4.3802338 -102.4656982)" gradientUnits="userSpaceOnUse">
	<stop  offset="0.0545455" style="stop-color:#F7D900"/>
	<stop  offset="0.50303" style="stop-color:#E20000"/>
	<stop  offset="1" style="stop-color:#000000"/>
</radialGradient>
<path fill="url(#SVGID_69_)" d="M119.8134766,19.8320312c-0.1425781-0.3085938-0.2695312-0.6230469-0.3798828-0.9414062
	c-0.8789062-0.03125-1.7568359-0.0703125-2.6347656-0.1152344c0.1220703,0.3105469,0.2636719,0.6171875,0.4257812,0.9199219
	C118.0878906,19.75,118.9511719,19.796875,119.8134766,19.8320312z"/>
<radialGradient id="SVGID_70_" cx="129.6103516" cy="131.5361328" r="8.8847589" gradientTransform="matrix(0.9999599 0.008961 -0.008961 0.9999599 -4.3334808 -107.90271)" gradientUnits="userSpaceOnUse">
	<stop  offset="0" style="stop-color:#FBEA43"/>
	<stop  offset="0.212121" style="stop-color:#F7D500"/>
	<stop  offset="0.575758" style="stop-color:#EE8C00"/>
	<stop  offset="1" style="stop-color:#E20000"/>
</radialGradient>
<path fill="url(#SVGID_70_)" d="M122.8076172,23.4355469c-0.7929688-0.5605469-1.4550781-1.2148438-1.9980469-1.9375
	c-0.0507812,0.0683594-0.09375,0.140625-0.1279297,0.2109375c-0.0048828,0.0097656-0.0107422,0.0195312-0.0146484,0.0292969
	c-0.0068359,0.0175781-0.0136719,0.0332031-0.0205078,0.0507812c-0.0058594,0.0117188-0.0097656,0.0253906-0.015625,0.0390625
	c-0.0048828,0.015625-0.0097656,0.03125-0.0136719,0.0449219c-0.0058594,0.015625-0.0097656,0.0332031-0.0136719,0.0488281
	c-0.0029297,0.0136719-0.0068359,0.0273438-0.0097656,0.0410156c-0.0029297,0.0175781-0.0068359,0.0390625-0.0087891,0.0566406
	c-0.0019531,0.0117188-0.0039062,0.0234375-0.0058594,0.0332031c-0.0029297,0.03125-0.0039062,0.0625-0.0048828,0.09375
	c0,0.0097656,0.0019531,0.0214844,0.0019531,0.0332031c0.0644531,0.0292969,0.1289062,0.0625,0.1943359,0.0976562
	c0.6171875,0.3457031,0.9863281,0.8632812,0.8222656,1.1542969c-0.0039062,0.0058594-0.0078125,0.0117188-0.0126953,0.0175781
	c0.0146484,0.0097656,0.0292969,0.0175781,0.0449219,0.0253906c0.0068359,0.0039062,0.0146484,0.0078125,0.0205078,0.0117188
	c0.0390625,0.0195312,0.078125,0.0390625,0.1181641,0.0585938c0.2861328,0.015625,0.5712891,0.0273438,0.8583984,0.0390625
	C122.6650391,23.5195312,122.7275391,23.4707031,122.8076172,23.4355469z"/>
<linearGradient id="SVGID_71_" gradientUnits="userSpaceOnUse" x1="111.3886719" y1="-9.0732422" x2="114.5758743" y2="4.2525077" gradientTransform="matrix(0.981756 0.190144 -0.190144 0.981756 7.3261108 -11.0736389)">
	<stop  offset="0.453694" style="stop-color:#FBE629"/>
	<stop  offset="0.717919" style="stop-color:#EA5400"/>
	<stop  offset="1" style="stop-color:#DE0000"/>
</linearGradient>
<path fill="url(#SVGID_71_)" d="M118.8720703,11.7929688c-0.0019531-0.0058594-0.0039062-0.0112305-0.0068359-0.0166016
	C118.8681641,11.7817383,118.8701172,11.7871094,118.8720703,11.7929688z"/>
<linearGradient id="SVGID_72_" gradientUnits="userSpaceOnUse" x1="111.1923828" y1="-9.4213867" x2="114.49897" y2="4.4035101" gradientTransform="matrix(0.981756 0.190144 -0.190144 0.981756 7.3261108 -11.0736389)">
	<stop  offset="0.453694" style="stop-color:#FBE629"/>
	<stop  offset="0.717919" style="stop-color:#EA5400"/>
	<stop  offset="1" style="stop-color:#DE0000"/>
</linearGradient>
<path fill="url(#SVGID_72_)" d="M118.7460938,11.4223633c-0.0029297-0.0087891-0.0048828-0.0175781-0.0078125-0.0263672
	C118.7412109,11.4047852,118.7431641,11.4135742,118.7460938,11.4223633z"/>
<linearGradient id="SVGID_73_" gradientUnits="userSpaceOnUse" x1="114.1162109" y1="-9.7607422" x2="117.313858" y2="3.6086833" gradientTransform="matrix(0.981756 0.190144 -0.190144 0.981756 7.3261108 -11.0736389)">
	<stop  offset="0.453694" style="stop-color:#FBE629"/>
	<stop  offset="0.717919" style="stop-color:#EA5400"/>
	<stop  offset="1" style="stop-color:#DE0000"/>
</linearGradient>
<path fill="url(#SVGID_73_)" d="M123.4462891,8.0229492c-1.1298828-0.0478516-2.5263672,0.4277344-3.7939453,1.3310547
	c0.3115234-0.109375,0.6162109-0.0844727,0.8173828,0.0991211c0.2373047,0.2163086,0.2695312,0.5976562,0.1181641,0.9794922
	c0.0429688-0.0019531,0.0878906-0.0024414,0.1318359-0.0048828C121.5664062,9.2504883,122.5712891,8.3652344,123.4462891,8.0229492z
	"/>
<linearGradient id="SVGID_74_" gradientUnits="userSpaceOnUse" x1="111.9599609" y1="-9.2416992" x2="115.1562805" y2="4.1221724" gradientTransform="matrix(0.981756 0.190144 -0.190144 0.981756 7.3261108 -11.0736389)">
	<stop  offset="0.453694" style="stop-color:#FBE629"/>
	<stop  offset="0.717919" style="stop-color:#EA5400"/>
	<stop  offset="1" style="stop-color:#DE0000"/>
</linearGradient>
<path fill="url(#SVGID_74_)" d="M118.7460938,11.4223633c0.0205078,0.0786133,0.0439453,0.1557617,0.0722656,0.2324219
	c0.0019531,0.0078125,0.0048828,0.0151367,0.0078125,0.0219727c0.0117188,0.0336914,0.0253906,0.0664062,0.0390625,0.0996094
	c0.0029297,0.0053711,0.0048828,0.0107422,0.0068359,0.0166016c0.0341797,0.078125,0.0703125,0.1547852,0.1103516,0.230957
	c0.0019531,0.0039062,0.0048828,0.0083008,0.0068359,0.012207c0.0195312,0.0361328,0.0400391,0.0717773,0.0615234,0.1069336
	c0,0.0019531,0.0009766,0.0043945,0.0019531,0.0063477c0.0234375,0.0385742,0.0488281,0.0776367,0.0722656,0.1157227
	c0.1816406-0.0063477,0.3613281-0.0117188,0.5429688-0.0180664c0.1474609-0.3271484,0.3115234-0.6445312,0.4882812-0.9487305
	c-0.1201172,0.0043945-0.2412109,0.0097656-0.3623047,0.015625c-0.3330078,0.1733398-0.6796875,0.1972656-0.921875,0.0419922
	c-0.0478516,0.0024414-0.09375,0.0048828-0.1396484,0.0068359c0.0019531,0.0112305,0.0029297,0.0224609,0.0058594,0.0332031
	C118.7412109,11.4047852,118.7431641,11.4135742,118.7460938,11.4223633z"/>
<linearGradient id="SVGID_75_" gradientUnits="userSpaceOnUse" x1="111.3798828" y1="-9.0649414" x2="114.5626144" y2="4.2420979" gradientTransform="matrix(0.981756 0.190144 -0.190144 0.981756 7.3261108 -11.0736389)">
	<stop  offset="0.453694" style="stop-color:#FBE629"/>
	<stop  offset="0.717919" style="stop-color:#EA5400"/>
	<stop  offset="1" style="stop-color:#DE0000"/>
</linearGradient>
<path fill="url(#SVGID_75_)" d="M118.7421875,10.1665039c0.0253906-0.0473633,0.0537109-0.0957031,0.0839844-0.1430664
	c-0.0214844,0.019043-0.0410156,0.0380859-0.0625,0.0571289c0,0.0004883,0,0.0004883,0,0.0004883
	C118.7548828,10.109375,118.75,10.1381836,118.7421875,10.1665039z"/>
<radialGradient id="SVGID_76_" cx="129.2363281" cy="131.6142578" r="17.4279842" gradientTransform="matrix(0.9999599 0.008961 -0.008961 0.9999599 -4.3334808 -107.90271)" gradientUnits="userSpaceOnUse">
	<stop  offset="0" style="stop-color:#FBEA43"/>
	<stop  offset="0.50303" style="stop-color:#EA4D00"/>
	<stop  offset="1" style="stop-color:#DE0000"/>
</radialGradient>
<path fill="url(#SVGID_76_)" d="M133.2802734,14.3945312c-0.3427734-0.0058594-0.6855469-0.0117188-1.0283203-0.0195312
	c-0.0830078,0.8613281-0.328125,1.6835938-0.6904297,2.4375l0,0c0.0966797,0.0722656,0.1855469,0.1503906,0.2695312,0.234375
	c0.4306641-0.0097656,0.8613281-0.0214844,1.2929688-0.0332031
	C133.3173828,16.1484375,133.3691406,15.2597656,133.2802734,14.3945312z"/>
<radialGradient id="SVGID_77_" cx="129.2421875" cy="131.6123047" r="17.4215469" gradientTransform="matrix(0.9999599 0.008961 -0.008961 0.9999599 -4.3334808 -107.90271)" gradientUnits="userSpaceOnUse">
	<stop  offset="0" style="stop-color:#FBEA43"/>
	<stop  offset="0.50303" style="stop-color:#EA4D00"/>
	<stop  offset="1" style="stop-color:#DE0000"/>
</radialGradient>
<path fill="url(#SVGID_77_)" d="M130.9277344,9.6621094c0.2207031,0.3144531,0.4130859,0.6298828,0.5771484,0.9467773
	c0.1083984,0.0083008,0.2167969,0.015625,0.3251953,0.0244141C131.5634766,10.2832031,131.2626953,9.9570312,130.9277344,9.6621094z
	"/>
<radialGradient id="SVGID_78_" cx="129.2353516" cy="131.6064453" r="17.4210796" gradientTransform="matrix(0.9999599 0.008961 -0.008961 0.9999599 -4.3334808 -107.90271)" gradientUnits="userSpaceOnUse">
	<stop  offset="0" style="stop-color:#FBEA43"/>
	<stop  offset="0.50303" style="stop-color:#EA4D00"/>
	<stop  offset="1" style="stop-color:#DE0000"/>
</radialGradient>
<path fill="url(#SVGID_78_)" d="M132.8076172,12.3955078c-0.1210938-0.3144531-0.2626953-0.6191406-0.4238281-0.9125977
	c-0.1699219-0.012207-0.3398438-0.0229492-0.5097656-0.0332031c0.1103516,0.3037109,0.1982422,0.6074219,0.2626953,0.9101562
	C132.3603516,12.3710938,132.5830078,12.3828125,132.8076172,12.3955078z"/>
<radialGradient id="SVGID_79_" cx="129.4101562" cy="128.4824219" r="19.6927795" gradientTransform="matrix(0.9999599 0.008961 -0.008844 0.986923 -4.3802338 -102.4656982)" gradientUnits="userSpaceOnUse">
	<stop  offset="0.0545455" style="stop-color:#FBEA43"/>
	<stop  offset="0.50303" style="stop-color:#EA4D00"/>
	<stop  offset="1" style="stop-color:#DE0000"/>
</radialGradient>
<path fill="url(#SVGID_79_)" d="M131.34375,20.546875c-0.2285156,0.0175781-0.4550781,0.0332031-0.6826172,0.046875
	c-0.1494141,0.3535156-0.3271484,0.7148438-0.5400391,1.0859375C130.578125,21.3378906,130.9853516,20.9550781,131.34375,20.546875z
	"/>
<radialGradient id="SVGID_80_" cx="129.4355469" cy="128.5439453" r="19.7308083" gradientTransform="matrix(0.9999599 0.008961 -0.008844 0.986923 -4.3802338 -102.4656982)" gradientUnits="userSpaceOnUse">
	<stop  offset="0.0545455" style="stop-color:#FBEA43"/>
	<stop  offset="0.50303" style="stop-color:#EA4D00"/>
	<stop  offset="1" style="stop-color:#DE0000"/>
</radialGradient>
<path fill="url(#SVGID_80_)" d="M131.5615234,16.8125c-0.0390625,0.0800781-0.0791016,0.1621094-0.1201172,0.2421875
	c0.1279297-0.0039062,0.2587891-0.0058594,0.3886719-0.0078125C131.7460938,16.9628906,131.6582031,16.8847656,131.5615234,16.8125
	L131.5615234,16.8125z"/>
<radialGradient id="SVGID_81_" cx="129.4189453" cy="128.4648438" r="19.6560059" gradientTransform="matrix(0.9999599 0.008961 -0.008844 0.986923 -4.3802338 -102.4656982)" gradientUnits="userSpaceOnUse">
	<stop  offset="0.0545455" style="stop-color:#FBEA43"/>
	<stop  offset="0.50303" style="stop-color:#EA4D00"/>
	<stop  offset="1" style="stop-color:#DE0000"/>
</radialGradient>
<path fill="url(#SVGID_81_)" d="M131.9970703,19.6894531c0.1953125-0.3007812,0.3701172-0.6074219,0.5214844-0.9238281
	c-0.4384766,0.0214844-0.8779297,0.0449219-1.3173828,0.0644531c-0.0556641,0.2929688-0.1308594,0.5996094-0.2304688,0.9199219
	C131.3134766,19.7324219,131.6552734,19.7109375,131.9970703,19.6894531z"/>
<path fill="#FFFFFF" d="M122.8076172,23.4355469c-0.0800781,0.0351562-0.1425781,0.0839844-0.1855469,0.1484375
	c0.3798828,0.0136719,0.7597656,0.0234375,1.140625,0.0273438c-0.0810547-0.0585938-0.1738281-0.1113281-0.2783203-0.1523438
	C123.2353516,23.3632812,122.9853516,23.3613281,122.8076172,23.4355469z"/>
<path fill="#FFFFFF" d="M121.5791016,23.4492188h0.0009766c0.0048828-0.0058594,0.0087891-0.0117188,0.0126953-0.0175781
	c0.1640625-0.2910156-0.2050781-0.8085938-0.8222656-1.1542969c-0.0654297-0.0351562-0.1298828-0.0683594-0.1943359-0.0976562l0,0
	c-0.5507812-0.2539062-1.0742188-0.2617188-1.2197266-0.0019531c-0.0019531,0.0019531-0.0019531,0.0039062-0.0029297,0.0058594
	c-0.1533203,0.2910156,0.2138672,0.8027344,0.8271484,1.1464844c0.0888672,0.0488281,0.1787109,0.09375,0.2666016,0.1308594
	c0.3505859,0.0273438,0.7011719,0.0507812,1.0517578,0.0703125c0.0078125-0.0058594,0.015625-0.0117188,0.0214844-0.015625
	C121.5449219,23.4960938,121.5634766,23.4746094,121.5791016,23.4492188z"/>
<path fill="#FFFFFF" d="M120.4697266,9.453125c-0.2011719-0.1835938-0.5058594-0.2084961-0.8173828-0.0991211
	c-0.2275391,0.0795898-0.4580078,0.230957-0.6533203,0.4458008c-0.0654297,0.0717773-0.1220703,0.1469727-0.1728516,0.2236328
	c-0.0302734,0.0473633-0.0585938,0.0957031-0.0839844,0.1430664c-0.0009766,0.0019531-0.0019531,0.0039062-0.0029297,0.0053711
	c-0.0625,0.1225586-0.1083984,0.246582-0.1337891,0.3676758c0.6601562-0.0424805,1.3222656-0.0786133,1.9824219-0.1069336
	C120.7392578,10.0507812,120.7070312,9.6694336,120.4697266,9.453125z"/>
<path fill="#FFFFFF" d="M119.7939453,11.3139648c-0.3076172,0.012207-0.6152344,0.0268555-0.921875,0.0419922
	C119.1142578,11.5112305,119.4609375,11.4873047,119.7939453,11.3139648z"/>
<path fill="#FFFFFF" d="M118.4648438,11.9101562c-0.2382812-0.2006836-0.640625-0.1132812-0.8994141,0.1943359
	c-0.0615234,0.0732422-0.109375,0.1523438-0.1425781,0.2333984c0.4042969-0.019043,0.8066406-0.0371094,1.2099609-0.0532227
	C118.6289062,12.1357422,118.5732422,12.0004883,118.4648438,11.9101562z"/>
<linearGradient id="SVGID_82_" gradientUnits="userSpaceOnUse" x1="124.0800781" y1="2.3745117" x2="125.7921677" y2="4.0511746">
	<stop  offset="0" style="stop-color:#CD3E40"/>
	<stop  offset="0.251309" style="stop-color:#D89E3C"/>
	<stop  offset="0.7853401" style="stop-color:#DBD724"/>
	<stop  offset="0.7984391" style="stop-color:#E2DF4F"/>
	<stop  offset="0.8131536" style="stop-color:#E9E678"/>
	<stop  offset="0.8292193" style="stop-color:#EFED9D"/>
	<stop  offset="0.8464701" style="stop-color:#F4F3BB"/>
	<stop  offset="0.8652759" style="stop-color:#F8F7D4"/>
	<stop  offset="0.8862624" style="stop-color:#FBFBE7"/>
	<stop  offset="0.9106277" style="stop-color:#FDFDF5"/>
	<stop  offset="0.9414467" style="stop-color:#FFFFFD"/>
	<stop  offset="1" style="stop-color:#FFFFFF"/>
</linearGradient>
<path fill="url(#SVGID_82_)" d="M124.8652344,4.1679688c-0.5664062,0-1.0253906-0.4604492-1.0253906-1.0258789
	c0-0.5649414,0.4589844-1.0249023,1.0253906-1.0249023c0.5654297,0,1.0244141,0.4599609,1.0244141,1.0249023
	C125.8896484,3.7075195,125.4306641,4.1679688,124.8652344,4.1679688z M124.8652344,2.519043
	c-0.34375,0-0.6230469,0.2797852-0.6230469,0.6230469c0,0.3442383,0.2792969,0.6235352,0.6230469,0.6235352
	c0.3427734,0,0.6230469-0.2792969,0.6230469-0.6235352C125.4882812,2.7988281,125.2080078,2.519043,124.8652344,2.519043z"/>
<linearGradient id="SVGID_83_" gradientUnits="userSpaceOnUse" x1="124.0996094" y1="2.3930664" x2="125.7697678" y2="4.028667">
	<stop  offset="0" style="stop-color:#FFFFFF"/>
	<stop  offset="0.0563838" style="stop-color:#FFFFFD"/>
	<stop  offset="0.0860634" style="stop-color:#FFFFF5"/>
	<stop  offset="0.1095145" style="stop-color:#FFFEE7"/>
	<stop  offset="0.1297158" style="stop-color:#FEFDD4"/>
	<stop  offset="0.1478237" style="stop-color:#FEFCBB"/>
	<stop  offset="0.1644482" style="stop-color:#FDFB9D"/>
	<stop  offset="0.1799398" style="stop-color:#FCF978"/>
	<stop  offset="0.194516" style="stop-color:#FBF74E"/>
	<stop  offset="0.2078831" style="stop-color:#FBF520"/>
	<stop  offset="0.21466" style="stop-color:#FAF405"/>
	<stop  offset="0.748691" style="stop-color:#F2A522"/>
	<stop  offset="1" style="stop-color:#E52629"/>
</linearGradient>
<path fill="url(#SVGID_83_)" d="M124.8652344,2.1420898c-0.5527344,0-1,0.4482422-1,1c0,0.5522461,0.4472656,1.0004883,1,1.0004883
	c0.5517578,0,0.9990234-0.4482422,0.9990234-1.0004883C125.8642578,2.590332,125.4169922,2.1420898,124.8652344,2.1420898z
	 M124.8652344,3.7905273c-0.3574219,0-0.6484375-0.2900391-0.6484375-0.6484375
	c0-0.3579102,0.2910156-0.6479492,0.6484375-0.6479492s0.6474609,0.2900391,0.6474609,0.6479492
	C125.5126953,3.5004883,125.2226562,3.7905273,124.8652344,3.7905273z"/>
<linearGradient id="SVGID_84_" gradientUnits="userSpaceOnUse" x1="122.7353516" y1="5.1191406" x2="126.7880859" y2="5.1191406">
	<stop  offset="0" style="stop-color:#FFDA4F"/>
	<stop  offset="0.0833333" style="stop-color:#FFF2BF"/>
	<stop  offset="0.171875" style="stop-color:#FFFBDE"/>
	<stop  offset="0.255208" style="stop-color:#FFFDC2"/>
	<stop  offset="0.322917" style="stop-color:#FFC173"/>
	<stop  offset="0.411458" style="stop-color:#FFB558"/>
	<stop  offset="0.526042" style="stop-color:#FFB13B"/>
	<stop  offset="0.625" style="stop-color:#FB8D00"/>
	<stop  offset="0.7447919" style="stop-color:#FF9104"/>
	<stop  offset="0.755208" style="stop-color:#FFDA4F"/>
	<stop  offset="0.8385419" style="stop-color:#FFDA4F"/>
	<stop  offset="0.9166669" style="stop-color:#FFF8D3"/>
	<stop  offset="0.9635419" style="stop-color:#FFE687"/>
	<stop  offset="1" style="stop-color:#FFC173"/>
</linearGradient>
<path fill="url(#SVGID_84_)" d="M126.6933594,5.2094727c-0.0390625-0.3793945-0.0136719-1.2597656-0.1972656-1.277832
	c-0.8662109-0.0844727-2.6347656-0.0791016-3.5751953,0c-0.0966797,0.0083008-0.0683594,0.8857422-0.0927734,1.2661133
	c-0.0263672,0.4111328-0.0996094,0.8466797-0.0927734,0.8466797h0.0039062c0.0048828,0,0.2548828-0.5966797,0.2548828-0.8896484
	c0-0.1445312,0.0087891-0.3505859,0.0195312-0.550293c0-0.0024414,0.0019531-0.0053711,0.0039062-0.0053711
	c0.0029297,0,0.0048828,0.0029297,0.0048828,0.0058594c-0.0058594,0.2109375-0.0117188,0.4824219-0.0117188,0.684082
	c0,0.2929688,0.2294922,0.9638672,0.2539062,0.9638672h0.0117188c0.0234375,0,0.6474609-0.6171875,0.6474609-0.9106445V4.6274414
	c0-0.015625,0.0136719-0.0283203,0.0302734-0.0283203s0.0302734,0.0126953,0.0302734,0.0283203v0.8110352
	c0,0.300293,0.8193359,0.9301758,0.8623047,0.9301758h0.0214844c0.0439453,0,0.8623047-0.6298828,0.8623047-0.9301758V4.6245117
	c0-0.0136719,0.0126953-0.0253906,0.0283203-0.0253906c0.0146484,0,0.0273438,0.0117188,0.0273438,0.0253906v0.6782227
	c0,0.293457,0.4326172,0.9301758,0.4501953,0.9301758h0.0107422c0.0175781,0,0.2636719-0.6367188,0.2636719-0.9301758
	c-0.0166016-0.3041992-0.0283203-0.3666992-0.0478516-0.6953125c0-0.0043945,0.0048828-0.0083008,0.0097656-0.0083008
	c0.0068359,0,0.0097656,0.0048828,0.0097656,0.0097656c0.0195312,0.2045898,0.0361328,0.4160156,0.0429688,0.5629883
	c0,0.3530273,0.2207031,0.8769531,0.2587891,0.8706055h0.0019531h0.0009766
	C126.7939453,6.0419922,126.7363281,5.6196289,126.6933594,5.2094727z"/>
<linearGradient id="SVGID_85_" gradientUnits="userSpaceOnUse" x1="122.7353516" y1="5.0976562" x2="126.7880859" y2="5.0976562">
	<stop  offset="0" style="stop-color:#FFDA4F"/>
	<stop  offset="0.0833333" style="stop-color:#FFF2BF"/>
	<stop  offset="0.244792" style="stop-color:#FFFBDE"/>
	<stop  offset="0.375" style="stop-color:#FFFDC2"/>
	<stop  offset="0.572917" style="stop-color:#FFDA4F"/>
	<stop  offset="0.671875" style="stop-color:#FFF8D3"/>
	<stop  offset="0.8541669" style="stop-color:#FFE687"/>
	<stop  offset="1" style="stop-color:#FFC173"/>
</linearGradient>
<path fill="url(#SVGID_85_)" d="M122.7412109,5.9829102c-0.0039062,0.0390625-0.0068359,0.0615234-0.0058594,0.0615234h0.0039062
	c0.0048828,0,0.2548828-0.5966797,0.2548828-0.8896484c0-0.1210938,0.0068359-0.2841797,0.0136719-0.4521484
	c-0.0068359,0.1606445-0.0136719,0.3178711-0.0136719,0.4331055C122.9941406,5.3999023,122.7734375,5.9213867,122.7412109,5.9829102
	z M123.0224609,4.6069336c0-0.0014648,0-0.0039062,0-0.0029297c0,0.0019531-0.0009766,0.0009766-0.0009766,0.0029297
	c0,0.0307617-0.0019531,0.0629883-0.0019531,0.0957031C123.0195312,4.6699219,123.0214844,4.6376953,123.0224609,4.6069336z
	 M126.4658203,4.6557617L126.4658203,4.6557617c-0.0009766-0.015625-0.0019531-0.0317383-0.0029297-0.0488281
	c0-0.0009766,0.0009766-0.0029297,0-0.0029297s0,0.0019531,0,0.0029297
	C126.4638672,4.6240234,126.4648438,4.640625,126.4658203,4.6557617z M122.9208984,3.9638672
	c0.9404297-0.0756836,2.7089844-0.0810547,3.5751953,0c0.1220703,0.0117188,0.1503906,0.3837891,0.1689453,0.7387695
	c-0.0185547-0.3710938-0.0488281-0.75-0.1689453-0.7709961c-0.8613281-0.1489258-2.6142578-0.1303711-3.5751953,0
	c-0.0644531,0.0087891-0.0742188,0.3984375-0.0791016,0.7709961C122.8466797,4.3452148,122.8554688,3.9692383,122.9208984,3.9638672
	z M124.8681641,6.2988281h-0.0214844c-0.0429688,0-0.8623047-0.6030273-0.8623047-0.8911133v0.0307617
	c0,0.300293,0.8193359,0.9301758,0.8623047,0.9301758h0.0214844c0.0439453,0,0.8623047-0.6298828,0.8623047-0.9301758V5.4077148
	C125.7304688,5.6958008,124.9121094,6.2988281,124.8681641,6.2988281z M126.7832031,5.9863281
	c-0.0410156-0.0039062-0.2578125-0.4990234-0.2578125-0.8339844c-0.0019531-0.059082-0.0078125-0.1303711-0.0126953-0.2070312
	c0-0.0014648-0.0009766-0.0058594-0.0009766-0.0043945c0.0058594,0.0854492,0.0107422,0.1650391,0.0136719,0.230957
	c0,0.3530273,0.2207031,0.8769531,0.2587891,0.8706055h0.0019531h0.0009766
	C126.7890625,6.0424805,126.7871094,6.0219727,126.7832031,5.9863281z M123.2763672,6.1879883h-0.0117188
	c-0.0244141,0-0.2519531-0.6381836-0.2539062-0.9204102c0,0.0068359,0,0.0141602,0,0.0214844
	c0,0.2929688,0.2294922,0.9638672,0.2539062,0.9638672h0.0117188c0.0234375,0,0.6474609-0.6171875,0.6474609-0.9106445V5.3154297
	C123.9238281,5.597168,123.2998047,6.1879883,123.2763672,6.1879883z M126.2470703,6.1689453h-0.0107422
	c-0.0175781,0-0.4501953-0.6103516-0.4501953-0.8911133v0.0249023c0,0.293457,0.4326172,0.9301758,0.4501953,0.9301758h0.0107422
	c0.0175781,0,0.2636719-0.6367188,0.2636719-0.9301758c0-0.0029297,0-0.0053711,0-0.0078125
	C126.5009766,5.5825195,126.2646484,6.1689453,126.2470703,6.1689453z"/>
<linearGradient id="SVGID_86_" gradientUnits="userSpaceOnUse" x1="124.65625" y1="5.6279297" x2="125.0371094" y2="5.6279297">
	<stop  offset="0" style="stop-color:#9F5900"/>
	<stop  offset="0.473958" style="stop-color:#955400"/>
	<stop  offset="0.541667" style="stop-color:#FF9E25"/>
	<stop  offset="1" style="stop-color:#FFFA85"/>
</linearGradient>
<circle fill="url(#SVGID_86_)" cx="124.8466797" cy="5.6274414" r="0.1904297"/>
<radialGradient id="SVGID_87_" cx="124.7978516" cy="5.6333008" r="0.1870396" gradientUnits="userSpaceOnUse">
	<stop  offset="0" style="stop-color:#FFFEE3"/>
	<stop  offset="0.302083" style="stop-color:#FFC173"/>
	<stop  offset="0.588542" style="stop-color:#FFAD48"/>
	<stop  offset="0.8385419" style="stop-color:#A95E00"/>
	<stop  offset="1" style="stop-color:#FF9104"/>
</radialGradient>
<circle fill="url(#SVGID_87_)" cx="124.8466797" cy="5.6274414" r="0.1308594"/>
<linearGradient id="SVGID_88_" gradientUnits="userSpaceOnUse" x1="123.2695312" y1="5.5898438" x2="123.4609375" y2="5.5898438">
	<stop  offset="0" style="stop-color:#ED8500"/>
	<stop  offset="0.473958" style="stop-color:#E38000"/>
	<stop  offset="0.541667" style="stop-color:#FFC173"/>
	<stop  offset="1" style="stop-color:#FFFFC4"/>
</linearGradient>
<ellipse fill="url(#SVGID_88_)" cx="123.3652344" cy="5.5893555" rx="0.0957031" ry="0.1796902"/>
<radialGradient id="SVGID_89_" cx="123.3603516" cy="5.5996094" r="0.1391612" gradientUnits="userSpaceOnUse">
	<stop  offset="0" style="stop-color:#FFFFFF"/>
	<stop  offset="0.302083" style="stop-color:#FFE5B3"/>
	<stop  offset="0.588542" style="stop-color:#FFD096"/>
	<stop  offset="0.8385419" style="stop-color:#F78900"/>
	<stop  offset="1" style="stop-color:#FFB352"/>
</radialGradient>
<ellipse fill="url(#SVGID_89_)" cx="123.3964844" cy="5.6000977" rx="0.0654297" ry="0.123539"/>
<linearGradient id="SVGID_90_" gradientUnits="userSpaceOnUse" x1="308.3095703" y1="-45.0063477" x2="308.3964844" y2="-45.0063477" gradientTransform="matrix(0.705256 0.080398 -0.113264 0.993565 -99.7279663 25.4675903)">
	<stop  offset="0" style="stop-color:#9F5900"/>
	<stop  offset="0.473958" style="stop-color:#955400"/>
	<stop  offset="0.541667" style="stop-color:#FF9E25"/>
	<stop  offset="1" style="stop-color:#FFFA85"/>
</linearGradient>
<ellipse fill="url(#SVGID_90_)" cx="122.840332" cy="5.5424805" rx="0.030951" ry="0.1454267"/>
<radialGradient id="SVGID_91_" cx="122.8320312" cy="5.5507812" r="0.1212914" gradientUnits="userSpaceOnUse">
	<stop  offset="0" style="stop-color:#FFFEE3"/>
	<stop  offset="0.302083" style="stop-color:#FFC173"/>
	<stop  offset="0.588542" style="stop-color:#FFAD48"/>
	<stop  offset="0.8385419" style="stop-color:#A95E00"/>
	<stop  offset="1" style="stop-color:#FF9104"/>
</radialGradient>
<ellipse fill="url(#SVGID_91_)" cx="122.8325195" cy="5.5507812" rx="0.030951" ry="0.0997553"/>
<linearGradient id="SVGID_92_" gradientUnits="userSpaceOnUse" x1="-625.6220703" y1="-147.4155273" x2="-625.4194336" y2="-147.4155273" gradientTransform="matrix(-0.99409 0.108555 -0.108555 -0.99409 -511.6294556 -73.0638733)">
	<stop  offset="0" style="stop-color:#E78100"/>
	<stop  offset="0.473958" style="stop-color:#DD7D00"/>
	<stop  offset="0.541667" style="stop-color:#FFBE6D"/>
	<stop  offset="1" style="stop-color:#FFFFC1"/>
</linearGradient>
<path fill="url(#SVGID_92_)" d="M126.1298828,5.5849609c-0.0107422-0.1040039,0.0253906-0.1938477,0.0810547-0.199707
	c0.0546875-0.0063477,0.109375,0.0737305,0.1201172,0.1777344c0.0107422,0.1044922-0.0253906,0.1943359-0.0810547,0.2001953
	C126.1962891,5.769043,126.1416016,5.6894531,126.1298828,5.5849609z"/>
<radialGradient id="SVGID_93_" cx="126.2470703" cy="5.5629883" r="0.1680844" gradientUnits="userSpaceOnUse">
	<stop  offset="0" style="stop-color:#FFFFFF"/>
	<stop  offset="0.302083" style="stop-color:#FFE5B3"/>
	<stop  offset="0.588542" style="stop-color:#FFD096"/>
	<stop  offset="0.8385419" style="stop-color:#F78900"/>
	<stop  offset="1" style="stop-color:#FFB352"/>
</radialGradient>
<path fill="url(#SVGID_93_)" d="M126.1269531,5.5742188c-0.0078125-0.0717773,0.0166016-0.1337891,0.0537109-0.1376953
	c0.0390625-0.0043945,0.0771484,0.0507812,0.0839844,0.1225586c0.0078125,0.0722656-0.0166016,0.1337891-0.0537109,0.1376953
	C126.171875,5.7011719,126.1347656,5.6459961,126.1269531,5.5742188z"/>
<linearGradient id="SVGID_94_" gradientUnits="userSpaceOnUse" x1="-625.8354492" y1="-155.0361328" x2="-625.7485352" y2="-155.0361328" gradientTransform="matrix(-0.993575 0.113178 -0.113178 -0.993575 -512.6627808 -77.6911926)">
	<stop  offset="0" style="stop-color:#E78100"/>
	<stop  offset="0.473958" style="stop-color:#DD7D00"/>
	<stop  offset="0.541667" style="stop-color:#FFBE6D"/>
	<stop  offset="1" style="stop-color:#FFFFC1"/>
</linearGradient>
<ellipse fill="url(#SVGID_94_)" cx="126.6879883" cy="5.5185547" rx="0.0437305" ry="0.1449414"/>
<radialGradient id="SVGID_95_" cx="126.7089844" cy="5.5039062" r="0.1122422" gradientUnits="userSpaceOnUse">
	<stop  offset="0" style="stop-color:#FFFFFF"/>
	<stop  offset="0.302083" style="stop-color:#FFFFD7"/>
	<stop  offset="0.588542" style="stop-color:#FFF3C2"/>
	<stop  offset="0.8385419" style="stop-color:#FFAA40"/>
	<stop  offset="1" style="stop-color:#FFD491"/>
</radialGradient>
<ellipse fill="url(#SVGID_95_)" cx="126.6728516" cy="5.5117188" rx="0.0304658" ry="0.1001869"/>
</svg>
