<?xml version="1.0" encoding="utf-8"?>
<!-- Generator: Adobe Illustrator 15.0.2, SVG Export Plug-In  -->
<!DOCTYPE svg PUBLIC "-//W3C//DTD SVG 1.1//EN" "http://www.w3.org/Graphics/SVG/1.1/DTD/svg11.dtd" [
	<!ENTITY ns_flows "http://ns.adobe.com/Flows/1.0/">
]>
<svg version="1.1"
	 xmlns="http://www.w3.org/2000/svg" xmlns:xlink="http://www.w3.org/1999/xlink" xmlns:a="http://ns.adobe.com/AdobeSVGViewerExtensions/3.0/"
	 x="0px" y="0px" width="170px" height="25px" viewBox="0 0 170 25" overflow="visible" enable-background="new 0 0 170 25"
	 xml:space="preserve">
<defs>
</defs>
<path fill="#FFFFFF" d="M0,6.7749023h1.984375v4.140625h0.0688477c0.5478516-1.4375,1.3969727-2.5429688,2.5488281-3.3193359
	C5.7539062,6.8212891,7.128418,6.4667969,8.7250977,6.5356445v2.1557617
	c-0.980957-0.0454102-1.8701172,0.0854492-2.668457,0.3930664c-0.7993164,0.3081055-1.4887695,0.7480469-2.0708008,1.3178711
	c-0.5810547,0.5698242-1.0322266,1.2548828-1.3515625,2.0532227s-0.4790039,1.6538086-0.4790039,2.5654297v9.4101562H0V6.7749023z"
	/>
<path fill="#FFFFFF" d="M11.4277344,16.1850586c0,0.7983398,0.1132812,1.6074219,0.3417969,2.4291992
	c0.2285156,0.8212891,0.5698242,1.5629883,1.0263672,2.2236328C13.2529297,21.5,13.8515625,22.0473633,14.5932617,22.480957
	c0.7407227,0.4335938,1.625,0.6499023,2.6518555,0.6499023c1.5732422,0,2.8056641-0.4160156,3.6948242-1.2485352
	s1.5058594-1.9223633,1.8481445-3.2680664h2.1552734c-0.456543,2.0073242-1.2949219,3.5639648-2.5146484,4.6704102
	c-1.2202148,1.1064453-2.9487305,1.659668-5.1835938,1.659668c-1.4145508,0-2.6240234-0.2514648-3.6274414-0.7529297
	c-1.0043945-0.5009766-1.824707-1.1806641-2.4633789-2.0351562c-0.6386719-0.855957-1.1123047-1.8481445-1.4204102-2.9780273
	c-0.3081055-1.128418-0.4619141-2.3203125-0.4619141-3.5751953c0-1.1630859,0.1538086-2.3037109,0.4619141-3.4213867
	S10.515625,10.0654297,11.1542969,9.1875c0.6386719-0.878418,1.4589844-1.5854492,2.4633789-2.1210938
	c1.003418-0.5366211,2.2128906-0.8046875,3.6274414-0.8046875c1.4135742,0,2.6230469,0.2856445,3.6264648,0.8554688
	C21.875,7.6875,22.690918,8.4345703,23.3183594,9.3579102c0.6274414,0.9248047,1.0776367,1.9853516,1.3510742,3.1831055
	c0.2739258,1.1972656,0.3881836,2.4121094,0.3427734,3.644043H11.4277344z M22.855957,14.3710938
	c-0.0224609-0.8212891-0.1650391-1.6083984-0.4272461-2.3613281c-0.2626953-0.7524414-0.6328125-1.4189453-1.1118164-2.0009766
	c-0.4799805-0.5820312-1.0610352-1.0488281-1.7460938-1.4033203c-0.684082-0.3530273-1.4599609-0.5302734-2.3256836-0.5302734
	c-0.8901367,0-1.6772461,0.1772461-2.3613281,0.5302734c-0.684082,0.3544922-1.2661133,0.8212891-1.7451172,1.4033203
	s-0.8613281,1.2548828-1.1464844,2.0185547c-0.2856445,0.7641602-0.4731445,1.5454102-0.5644531,2.34375H22.855957z"/>
<path fill="#FFFFFF" d="M43.4555664,24.4311523h-1.9848633v-3.3535156h-0.0683594
	c-0.2285156,0.5708008-0.5644531,1.0952148-1.0092773,1.5742188c-0.4443359,0.4790039-0.953125,0.8901367-1.5229492,1.2314453
	c-0.5698242,0.3427734-1.1796875,0.6044922-1.8305664,0.7871094c-0.6494141,0.1821289-1.2949219,0.2739258-1.9331055,0.2739258
	c-1.3461914,0-2.5146484-0.2514648-3.5068359-0.7529297c-0.9921875-0.5009766-1.8193359-1.1806641-2.480957-2.0351562
	c-0.6621094-0.855957-1.1523438-1.8481445-1.4711914-2.9780273c-0.3203125-1.128418-0.4790039-2.3203125-0.4790039-3.5751953
	c0-1.2539062,0.1586914-2.4467773,0.4790039-3.5756836c0.3188477-1.1293945,0.809082-2.121582,1.4711914-2.9765625
	c0.6616211-0.855957,1.4887695-1.5341797,2.480957-2.0366211c0.9921875-0.5009766,2.1606445-0.7524414,3.5068359-0.7524414
	c0.6616211,0,1.3056641,0.0854492,1.9331055,0.2568359c0.6274414,0.1708984,1.215332,0.4160156,1.7626953,0.7353516
	c0.546875,0.3203125,1.03125,0.7182617,1.4536133,1.1982422c0.4223633,0.4790039,0.7470703,1.0375977,0.9755859,1.6762695h0.0688477
	V0h2.1552734V24.4311523z M29.3237305,15.6030273c0,0.9121094,0.1083984,1.8193359,0.324707,2.7207031
	c0.2172852,0.9008789,0.5585938,1.7050781,1.0263672,2.4121094c0.4682617,0.7075195,1.0668945,1.2827148,1.7973633,1.7275391
	c0.7294922,0.4453125,1.6074219,0.6674805,2.6342773,0.6674805c1.140625,0,2.1040039-0.222168,2.8911133-0.6674805
	c0.7871094-0.4448242,1.4257812-1.0200195,1.9165039-1.7275391c0.4902344-0.7070312,0.84375-1.5112305,1.0600586-2.4121094
	c0.2172852-0.9013672,0.3261719-1.8085938,0.3261719-2.7207031c0-0.9125977-0.1088867-1.8183594-0.3261719-2.7207031
	c-0.2163086-0.9003906-0.5698242-1.7041016-1.0600586-2.4121094C39.4233398,9.7636719,38.784668,9.1875,37.9975586,8.7426758
	s-1.7504883-0.6674805-2.8911133-0.6674805c-1.0268555,0-1.9047852,0.2226562-2.6342773,0.6674805
	c-0.7304688,0.4448242-1.3291016,1.0209961-1.7973633,1.7275391c-0.4677734,0.7080078-0.809082,1.5117188-1.0263672,2.4121094
	C29.4321289,13.784668,29.3237305,14.6904297,29.3237305,15.6030273z"/>
<path fill="#FFFFFF" d="M63.0952148,24.4311523h-1.9848633v-3.3535156h-0.0683594
	c-0.2285156,0.5708008-0.5644531,1.0952148-1.0092773,1.5742188c-0.4443359,0.4790039-0.953125,0.8901367-1.5229492,1.2314453
	c-0.5698242,0.3427734-1.1796875,0.6044922-1.8305664,0.7871094c-0.6494141,0.1821289-1.2949219,0.2739258-1.9331055,0.2739258
	c-1.3461914,0-2.5146484-0.2514648-3.5068359-0.7529297c-0.9921875-0.5009766-1.8193359-1.1806641-2.480957-2.0351562
	c-0.6621094-0.855957-1.1518555-1.8481445-1.4711914-2.9780273c-0.3203125-1.128418-0.4790039-2.3203125-0.4790039-3.5751953
	c0-1.2539062,0.1586914-2.4467773,0.4790039-3.5756836c0.3193359-1.1293945,0.809082-2.121582,1.4711914-2.9765625
	c0.6616211-0.855957,1.4887695-1.5341797,2.480957-2.0366211c0.9921875-0.5009766,2.1606445-0.7524414,3.5068359-0.7524414
	c0.6616211,0,1.3056641,0.0854492,1.9331055,0.2568359c0.6274414,0.1708984,1.215332,0.4160156,1.7626953,0.7353516
	c0.546875,0.3203125,1.03125,0.7182617,1.4536133,1.1982422c0.4223633,0.4790039,0.7470703,1.0375977,0.9755859,1.6762695h0.0688477
	V0h2.1552734V24.4311523z M48.9633789,15.6030273c0,0.9121094,0.1083984,1.8193359,0.324707,2.7207031
	c0.2172852,0.9008789,0.5585938,1.7050781,1.0263672,2.4121094c0.4682617,0.7075195,1.0668945,1.2827148,1.7973633,1.7275391
	c0.7294922,0.4453125,1.6074219,0.6674805,2.6342773,0.6674805c1.140625,0,2.1040039-0.222168,2.8911133-0.6674805
	c0.7871094-0.4448242,1.4257812-1.0200195,1.9165039-1.7275391c0.4902344-0.7070312,0.84375-1.5112305,1.0600586-2.4121094
	c0.2172852-0.9013672,0.3261719-1.8085938,0.3261719-2.7207031c0-0.9125977-0.1088867-1.8183594-0.3261719-2.7207031
	c-0.2163086-0.9003906-0.5698242-1.7041016-1.0600586-2.4121094C59.0629883,9.7636719,58.4243164,9.1875,57.637207,8.7426758
	s-1.7504883-0.6674805-2.8911133-0.6674805c-1.0268555,0-1.9047852,0.2226562-2.6342773,0.6674805
	c-0.7304688,0.4448242-1.3291016,1.0209961-1.7973633,1.7275391c-0.4677734,0.7080078-0.809082,1.5117188-1.0263672,2.4121094
	C49.0717773,13.784668,48.9633789,14.6904297,48.9633789,15.6030273z"/>
<path fill="#FFFFFF" d="M67.2358398,0.0341797h2.1552734v3.4213867h-2.1552734V0.0341797z M67.2358398,6.7749023h2.1552734v17.65625
	h-2.1552734V6.7749023z"/>
<path fill="#FFFFFF" d="M76.953125,6.7749023h3.5927734v1.8134766H76.953125V20.496582
	c0,0.7070312,0.0961914,1.2602539,0.2915039,1.659668c0.1928711,0.3989258,0.6782227,0.6206055,1.453125,0.6660156
	c0.6166992,0,1.2319336-0.0332031,1.8481445-0.1020508v1.847168c-0.3193359,0-0.6386719,0.012207-0.9580078,0.0341797
	c-0.3198242,0.0234375-0.6391602,0.034668-0.9575195,0.034668c-1.4379883,0-2.4414062-0.2851562-3.0112305-0.8549805
	c-0.5708008-0.5698242-0.8447266-1.6083984-0.8212891-3.1142578V8.5883789h-3.0800781V6.7749023h3.0800781V1.4711914h2.1552734
	V6.7749023z"/>
<path fill="#FFFFFF" d="M105.6259766,12.3178711c-0.2963867-1.3222656-0.8505859-2.3603516-1.659668-3.112793
	c-0.8095703-0.7529297-1.9213867-1.1298828-3.3359375-1.1298828c-1.0268555,0-1.9277344,0.2172852-2.703125,0.6499023
	c-0.7758789,0.4345703-1.4199219,1.0043945-1.9331055,1.7114258c-0.5136719,0.7075195-0.9013672,1.5112305-1.1630859,2.4125977
	C94.5683594,13.7504883,94.4375,14.668457,94.4375,15.6030273c0,0.9355469,0.1308594,1.8535156,0.3935547,2.7548828
	c0.2617188,0.9013672,0.6494141,1.7050781,1.1630859,2.4121094c0.5131836,0.7075195,1.1572266,1.2773438,1.9331055,1.7109375
	c0.7753906,0.4335938,1.6762695,0.6499023,2.703125,0.6499023c0.6616211,0,1.2880859-0.1254883,1.8823242-0.3759766
	c0.5922852-0.2509766,1.1176758-0.5986328,1.5732422-1.0444336c0.456543-0.4443359,0.8325195-0.9746094,1.1293945-1.5908203
	c0.2963867-0.6152344,0.4790039-1.2885742,0.5478516-2.019043h2.1552734
	c-0.2958984,2.144043-1.0898438,3.8212891-2.3779297,5.0302734c-1.2895508,1.2089844-2.9257812,1.8134766-4.9101562,1.8134766
	c-1.3461914,0-2.5375977-0.2514648-3.5756836-0.7529297c-1.0385742-0.5009766-1.9111328-1.1748047-2.6171875-2.0185547
	c-0.7075195-0.84375-1.2441406-1.8305664-1.6088867-2.9599609c-0.3647461-1.1289062-0.5473633-2.3320312-0.5473633-3.6098633
	c0-1.2539062,0.1826172-2.4516602,0.5473633-3.5932617c0.3647461-1.1396484,0.9013672-2.1318359,1.6088867-2.9765625
	c0.7060547-0.84375,1.5786133-1.5166016,2.6171875-2.019043c1.0380859-0.5009766,2.2294922-0.7524414,3.5756836-0.7524414
	c1.8935547,0,3.4956055,0.5019531,4.8081055,1.5053711c1.3115234,1.0043945,2.0917969,2.5209961,2.34375,4.5507812H105.6259766z"/>
<path fill="#FFFFFF" d="M110.9648438,0h2.1552734v24.4311523h-2.1552734V0z"/>
<path fill="#FFFFFF" d="M136.2495117,6.7749023h2.1572266v3.0454102h0.0688477
	c0.2041016-0.5244141,0.4956055-1.0087891,0.8725586-1.4545898c0.375-0.4443359,0.8149414-0.8203125,1.315918-1.128418
	c0.5014648-0.3081055,1.0488281-0.5478516,1.6430664-0.71875c0.5922852-0.1713867,1.1972656-0.2568359,1.8134766-0.2568359
	c1.230957,0,2.2631836,0.159668,3.0966797,0.4790039c0.831543,0.3198242,1.5,0.7700195,2.0009766,1.3510742
	c0.5014648,0.5820312,0.855957,1.2958984,1.0620117,2.1386719c0.2041016,0.8447266,0.3061523,1.7915039,0.3061523,2.840332
	v11.3603516h-2.1552734V13.4135742c0-0.7529297-0.0683594-1.4545898-0.2041016-2.1044922
	c-0.137207-0.6503906-0.3769531-1.2148438-0.7182617-1.6938477c-0.3432617-0.4790039-0.8056641-0.855957-1.3867188-1.1298828
	c-0.5810547-0.2734375-1.3051758-0.4101562-2.171875-0.4101562c-0.8671875,0-1.6376953,0.1542969-2.3095703,0.4624023
	c-0.6738281,0.3071289-1.2495117,0.7294922-1.7280273,1.2661133c-0.4790039,0.5356445-0.8447266,1.1748047-1.0957031,1.9155273
	c-0.2504883,0.7416992-0.3876953,1.5454102-0.4101562,2.4125977v10.2993164h-2.1572266V6.7749023z"/>
<path fill="#FFFFFF" d="M155.9257812,16.1850586c0,0.7983398,0.1132812,1.6074219,0.3413086,2.4291992
	c0.2285156,0.8212891,0.5698242,1.5629883,1.0268555,2.2236328c0.456543,0.6621094,1.0541992,1.2094727,1.796875,1.6430664
	c0.7407227,0.4335938,1.6245117,0.6499023,2.6508789,0.6499023c1.5742188,0,2.8066406-0.4160156,3.6962891-1.2485352
	c0.8891602-0.8325195,1.5053711-1.9223633,1.8466797-3.2680664h2.1572266
	c-0.456543,2.0073242-1.2958984,3.5639648-2.5151367,4.6704102c-1.2216797,1.1064453-2.9501953,1.659668-5.1850586,1.659668
	c-1.4145508,0-2.6230469-0.2514648-3.6254883-0.7529297c-1.0043945-0.5009766-1.8266602-1.1806641-2.465332-2.0351562
	c-0.6386719-0.855957-1.1118164-1.8481445-1.418457-2.9780273c-0.3081055-1.128418-0.4619141-2.3203125-0.4619141-3.5751953
	c0-1.1630859,0.1538086-2.3037109,0.4619141-3.4213867c0.3066406-1.1176758,0.7797852-2.1162109,1.418457-2.9941406
	c0.6386719-0.878418,1.4609375-1.5854492,2.465332-2.1210938c1.0024414-0.5366211,2.2109375-0.8046875,3.6254883-0.8046875
	s2.6230469,0.2856445,3.6274414,0.8554688c1.0043945,0.5703125,1.8193359,1.3173828,2.4467773,2.2407227
	c0.6274414,0.9248047,1.0786133,1.9853516,1.3515625,3.1831055c0.2744141,1.1972656,0.3876953,2.4121094,0.3413086,3.644043
	H155.9257812z M167.3535156,14.3710938c-0.0224609-0.8212891-0.1650391-1.6083984-0.4267578-2.3613281
	c-0.2636719-0.7524414-0.6333008-1.4189453-1.1123047-2.0009766s-1.0615234-1.0488281-1.7446289-1.4033203
	c-0.6850586-0.3530273-1.4614258-0.5302734-2.328125-0.5302734c-0.8891602,0-1.6762695,0.1772461-2.359375,0.5302734
	c-0.6850586,0.3544922-1.2661133,0.8212891-1.7451172,1.4033203c-0.480957,0.5820312-0.8613281,1.2548828-1.1474609,2.0185547
	c-0.2856445,0.7641602-0.4731445,1.5454102-0.5639648,2.34375H167.3535156z"/>
<path fill="#306E00" d="M116.4594727,16.2324219c0-4.8417969,3.9248047-8.7670898,8.7670898-8.7670898
	s8.7666016,3.925293,8.7666016,8.7670898c0,4.8422852-3.9243164,8.7675781-8.7666016,8.7675781
	S116.4594727,21.074707,116.4594727,16.2324219"/>
<path fill="#2D6500" d="M116.7392578,16.2324219c0-4.6865234,3.7998047-8.487793,8.4873047-8.487793
	s8.4873047,3.8012695,8.4873047,8.487793c0,4.6870117-3.7998047,8.4882812-8.4873047,8.4882812
	S116.7392578,20.9194336,116.7392578,16.2324219"/>
<path fill="#EFE8D0" d="M117.0361328,16.2324219c0-4.5234375,3.6674805-8.1894531,8.1904297-8.1894531
	s8.1904297,3.6660156,8.1904297,8.1894531c0,4.5239258-3.6674805,8.1904297-8.1904297,8.1904297
	S117.0361328,20.7563477,117.0361328,16.2324219"/>
<path fill="#FA3F00" d="M117.3505859,16.2324219c0-4.3486328,3.5263672-7.875,7.8759766-7.875s7.8754883,3.5263672,7.8754883,7.875
	c0,4.3496094-3.5258789,7.8754883-7.8754883,7.8754883S117.3505859,20.5820312,117.3505859,16.2324219"/>
<path fill="#712204" d="M124.4887695,13.9433594c0.1030273,0.1835938,0.0732422,0.3955078-0.0649414,0.4716797
	c-0.1386719,0.0766602-0.3334961-0.0092773-0.4355469-0.1943359c-0.1030273-0.1845703-0.0732422-0.3959961,0.0649414-0.4731445
	S124.3867188,13.7587891,124.4887695,13.9433594"/>
<path fill="#AD644C" d="M124.3491211,13.9765625c0.074707,0.0996094,0.1025391,0.2045898,0.0605469,0.2368164
	c-0.0410156,0.0297852-0.1347656-0.0249023-0.2089844-0.1245117c-0.0742188-0.0991211-0.1010742-0.2041016-0.0600586-0.2353516
	C124.1811523,13.8227539,124.2749023,13.878418,124.3491211,13.9765625"/>
<path fill="#712204" d="M124.1430664,11.8847656c0.0483398,0.2060547-0.0375977,0.4008789-0.1918945,0.4360352
	c-0.1542969,0.0361328-0.3173828-0.1010742-0.3647461-0.3061523s0.0380859-0.4008789,0.1918945-0.4365234
	C123.9326172,11.5419922,124.0961914,11.6787109,124.1430664,11.8847656"/>
<path fill="#AD644C" d="M124.0004883,11.8798828c0.0444336,0.1152344,0.0405273,0.2246094-0.0073242,0.2421875
	c-0.0473633,0.0175781-0.121582-0.0600586-0.1665039-0.1762695c-0.043457-0.1152344-0.0405273-0.2246094,0.0068359-0.2431641
	C123.8813477,11.6850586,123.956543,11.7641602,124.0004883,11.8798828"/>
<path fill="#712204" d="M125.9057617,11.8066406c-0.0351562,0.2080078-0.1889648,0.3544922-0.3452148,0.3286133
	c-0.1557617-0.0258789-0.253418-0.2163086-0.21875-0.4233398c0.0341797-0.2080078,0.1889648-0.3554688,0.3452148-0.3295898
	C125.8427734,11.4077148,125.9414062,11.5976562,125.9057617,11.8066406"/>
<path fill="#AD644C" d="M125.7758789,11.7460938c-0.0043945,0.1235352-0.0483398,0.2231445-0.1000977,0.222168
	c-0.0512695-0.0019531-0.0898438-0.1030273-0.0864258-0.2265625c0.0039062-0.1245117,0.0483398-0.2226562,0.0996094-0.2216797
	C125.7407227,11.5209961,125.7788086,11.6230469,125.7758789,11.7460938"/>
<path fill="#712204" d="M127.8540039,12.6030273c-0.125,0.1699219-0.3291016,0.230957-0.456543,0.137207
	c-0.1279297-0.0947266-0.1279297-0.3081055-0.003418-0.4770508c0.1259766-0.1699219,0.3300781-0.2319336,0.4575195-0.1362305
	C127.9785156,12.2207031,127.9794922,12.434082,127.8540039,12.6030273"/>
<path fill="#AD644C" d="M127.7651367,12.4916992c-0.0585938,0.1083984-0.144043,0.175293-0.1894531,0.1513672
	c-0.0444336-0.0244141-0.0332031-0.1328125,0.0258789-0.2407227c0.0605469-0.109375,0.1459961-0.1772461,0.1894531-0.152832
	C127.8364258,12.2744141,127.824707,12.3823242,127.7651367,12.4916992"/>
<path fill="#712204" d="M121.1860352,14.2553711c0.1865234,0.0961914,0.28125,0.2885742,0.2089844,0.4287109
	c-0.0722656,0.1411133-0.2832031,0.1772461-0.4707031,0.081543c-0.1875-0.0961914-0.2802734-0.2885742-0.2089844-0.4296875
	C120.7880859,14.1958008,120.9985352,14.159668,121.1860352,14.2553711"/>
<path fill="#AD644C" d="M121.0893555,14.3618164c0.1171875,0.0410156,0.1977539,0.1132812,0.1811523,0.1625977
	c-0.0166016,0.0483398-0.1254883,0.0537109-0.2431641,0.0131836c-0.1162109-0.0419922-0.1977539-0.1132812-0.1811523-0.1616211
	C120.8637695,14.3266602,120.9726562,14.3212891,121.0893555,14.3618164"/>
<path fill="#712204" d="M122.4179688,12.7329102c0.1279297,0.1660156,0.1318359,0.3798828,0.0063477,0.4770508
	c-0.1254883,0.0966797-0.3305664,0.0400391-0.4594727-0.1269531c-0.1298828-0.1660156-0.1328125-0.3798828-0.0073242-0.4770508
	C122.081543,12.5092773,122.2875977,12.5668945,122.4179688,12.7329102"/>
<path fill="#AD644C" d="M122.2851562,12.7885742c0.0878906,0.0864258,0.1308594,0.1865234,0.0947266,0.2226562
	c-0.0356445,0.0366211-0.1367188-0.003418-0.2246094-0.0898438c-0.0893555-0.0874023-0.1318359-0.1875-0.0957031-0.2236328
	C122.0957031,12.6606445,122.1967773,12.7016602,122.2851562,12.7885742"/>
<path fill="#712204" d="M120.7211914,16.4580078c0.2094727-0.0068359,0.3842773,0.1157227,0.3886719,0.2734375
	c0.0058594,0.1586914-0.1616211,0.2915039-0.3720703,0.2993164c-0.2109375,0.0063477-0.3852539-0.1171875-0.3896484-0.2749023
	C120.3422852,16.597168,120.5092773,16.4643555,120.7211914,16.4580078"/>
<path fill="#AD644C" d="M120.6875,16.597168c0.121582-0.0205078,0.2285156,0.003418,0.2368164,0.0546875
	c0.0083008,0.050293-0.0844727,0.1074219-0.2060547,0.1289062c-0.121582,0.0195312-0.2275391-0.0043945-0.2358398-0.0546875
	C120.4731445,16.6757812,120.5649414,16.6181641,120.6875,16.597168"/>
<path fill="#712204" d="M121.1713867,18.2333984c0.190918-0.0888672,0.3999023-0.0463867,0.4677734,0.0966797
	c0.0668945,0.1430664-0.0336914,0.3320312-0.2236328,0.4213867c-0.1914062,0.0898438-0.3994141,0.0463867-0.4672852-0.0966797
	C120.8808594,18.5117188,120.980957,18.3237305,121.1713867,18.2333984"/>
<path fill="#AD644C" d="M121.1972656,18.3745117c0.1030273-0.0668945,0.2099609-0.0883789,0.2382812-0.043457
	c0.027832,0.0424805-0.0332031,0.1328125-0.137207,0.1992188c-0.1040039,0.0678711-0.2104492,0.0874023-0.2382812,0.0449219
	C121.0322266,18.53125,121.0922852,18.4423828,121.1972656,18.3745117"/>
<path fill="#712204" d="M122.2924805,19.6831055c0.1391602-0.1586914,0.3481445-0.2021484,0.4667969-0.0981445
	c0.1196289,0.1049805,0.1020508,0.3173828-0.0361328,0.4760742c-0.1401367,0.1586914-0.3491211,0.2016602-0.4677734,0.0976562
	C122.1376953,20.0546875,122.1542969,19.8413086,122.2924805,19.6831055"/>
<path fill="#AD644C" d="M122.371582,19.8022461c0.0683594-0.1030273,0.1586914-0.1645508,0.2021484-0.1357422
	c0.0424805,0.027832,0.0214844,0.1347656-0.0473633,0.2387695c-0.0668945,0.1030273-0.1577148,0.1630859-0.199707,0.1352539
	C122.2832031,20.0117188,122.3037109,19.90625,122.371582,19.8022461"/>
<path fill="#712204" d="M123.9223633,20.5722656c0.0629883-0.2001953,0.2368164-0.3237305,0.3881836-0.2773438
	c0.1503906,0.0483398,0.2207031,0.2495117,0.1586914,0.4501953c-0.0649414,0.2016602-0.2387695,0.3256836-0.3891602,0.2783203
	C123.9287109,20.9760742,123.859375,20.7739258,123.9223633,20.5722656"/>
<path fill="#AD644C" d="M124.0429688,20.6503906c0.0205078-0.121582,0.0791016-0.2133789,0.1298828-0.2050781
	c0.0493164,0.0083008,0.0737305,0.1142578,0.0532227,0.2368164s-0.078125,0.2133789-0.128418,0.2050781
	C124.0458984,20.8789062,124.0224609,20.7729492,124.0429688,20.6503906"/>
<path fill="#712204" d="M125.7436523,20.7338867c-0.0224609-0.2094727,0.0869141-0.3916016,0.2451172-0.4082031
	c0.1577148-0.0166016,0.3012695,0.1411133,0.324707,0.3500977c0.0205078,0.2104492-0.0893555,0.3925781-0.2460938,0.4091797
	S125.7646484,20.9438477,125.7436523,20.7338867"/>
<path fill="#AD644C" d="M125.8847656,20.7573242c-0.0297852-0.1196289-0.0131836-0.2275391,0.0371094-0.2407227
	c0.0498047-0.0107422,0.1142578,0.0761719,0.1435547,0.1967773c0.0297852,0.1201172,0.012207,0.2275391-0.0371094,0.2397461
	C125.9785156,20.9658203,125.9145508,20.8769531,125.8847656,20.7573242"/>
<path fill="#712204" d="M127.4233398,20.1899414c-0.1010742-0.1855469-0.0693359-0.3959961,0.0688477-0.472168
	c0.1401367-0.0751953,0.3339844,0.0146484,0.4345703,0.1987305c0.1010742,0.1865234,0.0683594,0.3969727-0.0698242,0.4731445
	C127.7177734,20.4648438,127.5249023,20.3759766,127.4233398,20.1899414"/>
<path fill="#AD644C" d="M127.5629883,20.1567383c-0.0737305-0.0996094-0.0996094-0.2050781-0.0576172-0.2358398
	c0.0405273-0.0307617,0.1342773,0.0258789,0.2070312,0.1264648c0.0742188,0.0991211,0.1000977,0.2041016,0.059082,0.2348633
	C127.7299805,20.3125,127.6362305,20.2568359,127.5629883,20.1567383"/>
<path fill="#712204" d="M128.7646484,19.0419922c-0.1630859-0.1328125-0.2163086-0.3388672-0.1166992-0.4614258
	c0.0991211-0.1245117,0.3125-0.1166992,0.4760742,0.0146484c0.1640625,0.1337891,0.2172852,0.3398438,0.1176758,0.4633789
	C129.1425781,19.1821289,128.9291992,19.1738281,128.7646484,19.0419922"/>
<path fill="#AD644C" d="M128.8808594,18.9575195c-0.105957-0.0639648-0.1708984-0.1503906-0.144043-0.1948242
	c0.0263672-0.0439453,0.1337891-0.027832,0.2397461,0.0361328c0.1064453,0.0629883,0.1704102,0.1513672,0.1455078,0.1938477
	C129.0952148,19.0371094,128.987793,19.0214844,128.8808594,18.9575195"/>
<path fill="#712204" d="M129.6816406,16.8979492c-0.2084961-0.0327148-0.3569336-0.1860352-0.3330078-0.3427734
	c0.0239258-0.1557617,0.2133789-0.2558594,0.4213867-0.2226562c0.2089844,0.0317383,0.3574219,0.1855469,0.3330078,0.3417969
	C130.078125,16.8300781,129.8896484,16.9301758,129.6816406,16.8979492"/>
<path fill="#AD644C" d="M129.7402344,16.7670898c-0.1245117-0.0019531-0.2236328-0.0458984-0.2226562-0.0986328
	c0.0009766-0.050293,0.1020508-0.0908203,0.2255859-0.0878906c0.1235352,0.0024414,0.2236328,0.0463867,0.2226562,0.097168
	C129.9648438,16.7290039,129.8637695,16.7685547,129.7402344,16.7670898"/>
<path fill="#712204" d="M129.4033203,14.5830078c-0.1967773,0.0761719-0.4018555,0.0175781-0.4594727-0.1298828
	c-0.0566406-0.1479492,0.0566406-0.3295898,0.253418-0.4047852c0.1967773-0.0761719,0.402832-0.0175781,0.4594727,0.1289062
	C129.7133789,14.3256836,129.6000977,14.5058594,129.4033203,14.5830078"/>
<path fill="#AD644C" d="M129.3876953,14.4399414c-0.1079102,0.0595703-0.215332,0.0712891-0.2407227,0.0268555
	c-0.0249023-0.0454102,0.0429688-0.1298828,0.1513672-0.1894531c0.1079102-0.0600586,0.2163086-0.0722656,0.2407227-0.0288086
	C129.5639648,14.2944336,129.4970703,14.3793945,129.3876953,14.4399414"/>
<path fill="#712204" d="M126.378418,14.1455078c-0.0585938,0.2026367-0.2294922,0.3325195-0.3803711,0.2880859
	c-0.1523438-0.0439453-0.2275391-0.2431641-0.1699219-0.4458008c0.0576172-0.2021484,0.2280273-0.3310547,0.3803711-0.2875977
	S126.4370117,13.9433594,126.378418,14.1455078"/>
<path fill="#AD644C" d="M126.2558594,14.0722656c-0.0175781,0.1225586-0.0732422,0.2163086-0.1245117,0.2089844
	c-0.0507812-0.0073242-0.0776367-0.1132812-0.0600586-0.2358398s0.0732422-0.2163086,0.1235352-0.2089844
	C126.246582,13.8432617,126.2734375,13.949707,126.2558594,14.0722656"/>
<path fill="#712204" d="M127.5703125,15.625c-0.184082,0.1025391-0.3955078,0.0727539-0.4726562-0.0654297
	c-0.0761719-0.1376953,0.0112305-0.3325195,0.1958008-0.4355469c0.1831055-0.1020508,0.3955078-0.0722656,0.4726562,0.065918
	C127.8422852,15.328125,127.7548828,15.5229492,127.5703125,15.625"/>
<path fill="#AD644C" d="M127.5356445,15.4858398c-0.0991211,0.0742188-0.2041016,0.1020508-0.234375,0.0605469
	c-0.0317383-0.0410156,0.0239258-0.1347656,0.1230469-0.2099609c0.0996094-0.0732422,0.2050781-0.1010742,0.2348633-0.0600586
	C127.6899414,15.3188477,127.6352539,15.4116211,127.5356445,15.4858398"/>
<path fill="#712204" d="M127.3676758,17.5151367c-0.2021484-0.0585938-0.3310547-0.2285156-0.2875977-0.3808594
	c0.0429688-0.1518555,0.2431641-0.2280273,0.4458008-0.1694336c0.2021484,0.0571289,0.3310547,0.2270508,0.2875977,0.3793945
	C127.7695312,17.496582,127.5703125,17.5727539,127.3676758,17.5151367"/>
<path fill="#AD644C" d="M127.4418945,17.3925781c-0.1230469-0.0185547-0.2158203-0.0732422-0.2084961-0.1245117
	c0.0063477-0.0507812,0.1113281-0.078125,0.2338867-0.0600586c0.1240234,0.0175781,0.2172852,0.0722656,0.2089844,0.1230469
	C127.6694336,17.3823242,127.5644531,17.4091797,127.4418945,17.3925781"/>
<path fill="#712204" d="M125.887207,18.7070312c-0.1000977-0.184082-0.0722656-0.3955078,0.065918-0.4716797
	c0.1386719-0.0771484,0.3344727,0.0092773,0.4355469,0.1948242c0.1030273,0.184082,0.0742188,0.3955078-0.0649414,0.4716797
	C126.1845703,18.9790039,125.9902344,18.8916016,125.887207,18.7070312"/>
<path fill="#AD644C" d="M126.0268555,18.6723633c-0.0737305-0.0991211-0.1005859-0.2041016-0.0595703-0.2348633
	c0.0415039-0.03125,0.1347656,0.0244141,0.2089844,0.1235352c0.0742188,0.0996094,0.1010742,0.2041016,0.0600586,0.2338867
	C126.1948242,18.8276367,126.1010742,18.7719727,126.0268555,18.6723633"/>
<path fill="#712204" d="M123.9985352,18.5043945c0.0585938-0.203125,0.2285156-0.3320312,0.3803711-0.2875977
	c0.1523438,0.0424805,0.2294922,0.2431641,0.1699219,0.4453125c-0.0576172,0.2026367-0.2280273,0.331543-0.3803711,0.2880859
	C124.0161133,18.90625,123.940918,18.7070312,123.9985352,18.5043945"/>
<path fill="#AD644C" d="M124.1220703,18.5786133c0.0185547-0.1225586,0.0722656-0.2163086,0.1245117-0.2094727
	c0.0498047,0.0073242,0.0756836,0.1132812,0.059082,0.2358398c-0.0175781,0.1220703-0.0722656,0.215332-0.1235352,0.2075195
	C124.1313477,18.8051758,124.1035156,18.7001953,124.1220703,18.5786133"/>
<path fill="#712204" d="M122.8056641,17.0239258c0.1850586-0.1010742,0.3955078-0.0732422,0.4736328,0.065918
	c0.0766602,0.1391602-0.0112305,0.3344727-0.1948242,0.4355469c-0.1850586,0.1020508-0.3964844,0.0742188-0.4736328-0.0639648
	C122.5336914,17.3212891,122.6220703,17.1269531,122.8056641,17.0239258"/>
<path fill="#AD644C" d="M122.840332,17.1640625c0.1000977-0.0742188,0.2050781-0.1010742,0.2363281-0.0600586
	c0.0307617,0.0415039-0.0249023,0.1342773-0.1240234,0.2084961c-0.0986328,0.0742188-0.2045898,0.1015625-0.2348633,0.0605469
	C122.6860352,17.3310547,122.7407227,17.2382812,122.840332,17.1640625"/>
<path fill="#712204" d="M123.0097656,15.1352539c0.2016602,0.0585938,0.3305664,0.2280273,0.2880859,0.3803711
	c-0.0439453,0.1523438-0.2441406,0.2285156-0.4467773,0.1699219c-0.2011719-0.0576172-0.3310547-0.2275391-0.2875977-0.3803711
	C122.6079102,15.1538086,122.8066406,15.0776367,123.0097656,15.1352539"/>
<path fill="#AD644C" d="M122.9355469,15.2578125c0.1225586,0.0185547,0.215332,0.0732422,0.2080078,0.1240234
	c-0.0063477,0.0522461-0.1123047,0.0771484-0.2348633,0.0615234c-0.1225586-0.0185547-0.2163086-0.0742188-0.2084961-0.1245117
	C122.7075195,15.2670898,122.8129883,15.2402344,122.9355469,15.2578125"/>
</svg>
