<?xml version="1.0" encoding="utf-8"?>
<!-- Generator: Adobe Illustrator 15.0.2, SVG Export Plug-In . SVG Version: 6.00 Build 0)  -->
<!DOCTYPE svg PUBLIC "-//W3C//DTD SVG 1.1//EN" "http://www.w3.org/Graphics/SVG/1.1/DTD/svg11.dtd">
<svg version="1.1" id="Ebene_1" xmlns="http://www.w3.org/2000/svg" xmlns:xlink="http://www.w3.org/1999/xlink" x="0px" y="0px"
	 width="119.75px" height="50px" viewBox="-59.875 -25 119.75 50" enable-background="new -59.875 -25 119.75 50"
	 xml:space="preserve">
<g>
	<path fill="#8FD3C8" d="M-0.464-0.585c0-3.737-3.04-6.777-6.777-6.777c-1.69,0-3.235,0.623-4.424,1.649
		c-4.602-2.986-10.558-4.73-16.933-4.978l3.368-10.981l9.798,2.193c0,0.027-0.004,0.052-0.004,0.079
		c0,3.088,2.513,5.601,5.601,5.601s5.601-2.512,5.601-5.601S-6.747-25-9.835-25c-2.321,0-4.315,1.419-5.164,3.435l-10.727-2.401
		c-0.544-0.122-1.089,0.195-1.252,0.728l-3.842,12.525c-6.721,0.108-13.032,1.871-17.855,5.001c-1.188-1.027-2.734-1.65-4.424-1.65
		c-3.736,0-6.776,3.04-6.776,6.777c0,2.451,1.308,4.602,3.262,5.792c-0.1,0.637-0.153,1.28-0.153,1.93
		c0,4.857,2.826,9.392,7.958,12.767C-43.814,23.19-37.195,25-30.17,25c7.025,0,13.644-1.811,18.638-5.096
		c5.131-3.375,7.957-7.909,7.957-12.767c0-0.649-0.052-1.293-0.152-1.93C-1.772,4.018-0.464,1.866-0.464-0.585z M-9.835-22.869
		c1.913,0,3.469,1.556,3.469,3.469c0,1.913-1.557,3.469-3.469,3.469s-3.469-1.556-3.469-3.469
		C-13.305-21.312-11.749-22.869-9.835-22.869z M-57.744-0.585c0-2.562,2.084-4.646,4.646-4.646c0.97,0,1.871,0.3,2.616,0.81
		c-2.728,2.156-4.622,4.686-5.574,7.415C-57.086,2.142-57.744,0.854-57.744-0.585z M-30.17,22.868
		c-13.489,0-24.464-7.057-24.464-15.73c0-0.373,0.021-0.742,0.062-1.108c0.077-0.709,0.227-1.406,0.446-2.087
		c0.819-2.543,2.596-4.863,5.077-6.797c0.55-0.429,1.136-0.838,1.753-1.228C-42.88-6.87-36.833-8.592-30.17-8.592
		c6.662,0,12.71,1.723,17.126,4.509c0.616,0.39,1.203,0.799,1.752,1.228c2.481,1.934,4.258,4.254,5.077,6.797
		c0.22,0.681,0.369,1.378,0.446,2.087c0.04,0.366,0.062,0.735,0.062,1.108C-5.706,15.812-16.681,22.868-30.17,22.868z M-4.283,2.995
		c-0.952-2.73-2.846-5.26-5.574-7.416c0.746-0.51,1.646-0.81,2.616-0.81c2.562,0,4.646,2.084,4.646,4.646
		C-2.596,0.854-3.253,2.142-4.283,2.995z"/>
	<path fill="#8FD3C8" d="M-22.05,13.954c-2.02,1.656-4.524,2.395-8.12,2.395s-6.1-0.738-8.12-2.395
		c-0.478-0.392-1.183-0.321-1.574,0.156c-0.392,0.478-0.322,1.183,0.156,1.574c2.415,1.98,5.445,2.901,9.539,2.901
		s7.124-0.921,9.539-2.901c0.478-0.392,0.548-1.097,0.156-1.574C-20.868,13.632-21.572,13.562-22.05,13.954z"/>
	<path fill="#8FD3C8" d="M-35.03,3.946c0-2.226-1.805-4.03-4.03-4.03c-2.227,0-4.031,1.805-4.031,4.03
		c0,2.227,1.805,4.031,4.031,4.031C-36.834,7.978-35.03,6.173-35.03,3.946z"/>
	<path fill="#8FD3C8" d="M-21.088-0.084c-2.227,0-4.032,1.805-4.032,4.03c0,2.227,1.805,4.031,4.032,4.031
		c2.226,0,4.031-1.805,4.031-4.031C-17.058,1.721-18.862-0.084-21.088-0.084z"/>
	<path fill="#D0DD71" d="M3.727,5.208c-0.1,0.637-0.152,1.28-0.152,1.93c0,4.857,2.826,9.392,7.958,12.767
		C16.525,23.189,23.146,25,30.17,25c7.025,0,13.645-1.81,18.638-5.096c5.132-3.375,7.958-7.909,7.958-12.767
		c0-0.649-0.053-1.293-0.152-1.93c1.954-1.19,3.262-3.342,3.262-5.792c0-3.737-3.04-6.777-6.776-6.777
		c-1.689,0-3.236,0.623-4.424,1.65c-4.823-3.13-11.135-4.894-17.855-5.001l-3.841-12.525c-0.164-0.533-0.709-0.849-1.252-0.728
		L15-21.565C14.15-23.581,12.156-25,9.835-25c-3.088,0-5.601,2.512-5.601,5.601s2.513,5.601,5.601,5.601s5.601-2.512,5.601-5.601
		c0-0.026-0.003-0.052-0.004-0.078l9.798-2.193l3.368,10.981c-6.375,0.247-12.331,1.991-16.933,4.978
		c-1.188-1.027-2.734-1.65-4.424-1.65c-3.736,0-6.777,3.04-6.777,6.777C0.464,1.866,1.772,4.018,3.727,5.208z M13.305-19.399
		c0,1.913-1.557,3.469-3.469,3.469c-1.913,0-3.47-1.556-3.47-3.469c0-1.913,1.557-3.469,3.47-3.469
		C11.748-22.869,13.305-21.312,13.305-19.399z M56.057,2.994c-0.952-2.729-2.846-5.259-5.574-7.415
		c0.745-0.51,1.646-0.81,2.616-0.81c2.562,0,4.646,2.084,4.646,4.646C57.744,0.854,57.086,2.142,56.057,2.994z M5.706,7.138
		c0-0.373,0.021-0.742,0.062-1.108C5.845,5.32,5.994,4.623,6.214,3.942c0.819-2.543,2.596-4.863,5.077-6.797
		c0.55-0.43,1.136-0.839,1.753-1.228c4.416-2.787,10.464-4.51,17.126-4.51s12.71,1.722,17.127,4.51
		c0.616,0.389,1.202,0.798,1.752,1.228c2.481,1.934,4.258,4.254,5.077,6.797c0.22,0.681,0.369,1.378,0.446,2.087
		c0.04,0.366,0.062,0.735,0.062,1.108c0,8.674-10.975,15.73-24.464,15.73S5.706,15.812,5.706,7.138z M2.596-0.584
		c0-2.562,2.084-4.646,4.646-4.646c0.97,0,1.871,0.3,2.616,0.81C7.129-2.265,5.235,0.266,4.283,2.995
		C3.253,2.142,2.596,0.854,2.596-0.584z"/>
	<path fill="#D0DD71" d="M20.475,14.11c-0.392,0.478-0.321,1.183,0.156,1.574c2.415,1.98,5.446,2.901,9.539,2.901
		s7.124-0.921,9.538-2.901c0.479-0.392,0.548-1.097,0.156-1.574s-1.097-0.548-1.574-0.156c-2.021,1.656-4.524,2.395-8.12,2.395
		s-6.1-0.738-8.12-2.395C21.572,13.562,20.867,13.632,20.475,14.11z"/>
	<path fill="#D0DD71" d="M39.061,7.978c2.226,0,4.031-1.805,4.031-4.031c0-2.226-1.805-4.03-4.031-4.03s-4.031,1.805-4.031,4.03
		C35.029,6.173,36.834,7.978,39.061,7.978z"/>
	<path fill="#D0DD71" d="M17.058,3.946c0,2.227,1.805,4.031,4.031,4.031s4.031-1.805,4.031-4.031c0-2.226-1.805-4.03-4.031-4.03
		S17.058,1.721,17.058,3.946z"/>
</g>
</svg>
